<?xml version="1.0" encoding="UTF-8" standalone="no"?>
<!-- Created with Inkscape (http://www.inkscape.org/) -->

<svg
   width="55.029655mm"
   height="54.890282mm"
   viewBox="0 0 55.029655 54.890282"
   version="1.1"
   id="svg1"
   xml:space="preserve"
   sodipodi:docname="logo.svg"
   xmlns:inkscape="http://www.inkscape.org/namespaces/inkscape"
   xmlns:sodipodi="http://sodipodi.sourceforge.net/DTD/sodipodi-0.dtd"
   xmlns="http://www.w3.org/2000/svg"
   xmlns:svg="http://www.w3.org/2000/svg"><sodipodi:namedview
     id="namedview1"
     pagecolor="#ffffff"
     bordercolor="#000000"
     borderopacity="0.25"
     inkscape:showpageshadow="2"
     inkscape:pageopacity="0.0"
     inkscape:pagecheckerboard="0"
     inkscape:deskcolor="#d1d1d1"
     inkscape:document-units="mm"><inkscape:page
       x="0"
       y="0"
       width="55.029655"
       height="54.890282"
       id="page2"
       margin="0"
       bleed="0" /></sodipodi:namedview><defs
     id="defs1" /><g
     inkscape:groupmode="layer"
     id="layer2"
     inkscape:label="Layer 2"><path
       style="fill:#000000"
       d="m 28.6101,54.701966 c -0.02207,-0.130631 -0.06278,-0.2105 -0.107299,-0.2105 -0.04812,0 -0.07173,-0.05854 -0.07173,-0.1778 0,-0.09779 -0.02286,-0.1778 -0.0508,-0.1778 -0.02794,0 -0.0508,-0.03429 -0.0508,-0.0762 0,-0.04191 -0.02286,-0.0762 -0.0508,-0.0762 -0.02794,0 -0.0508,-0.06858 -0.0508,-0.1524 0,-0.09708 -0.02593,-0.1524 -0.07143,-0.1524 -0.0472,0 -0.08329,-0.08619 -0.106367,-0.254 -0.01921,-0.1397 -0.0534,-0.254 -0.07598,-0.254 -0.02257,0 -0.05696,-0.13716 -0.07642,-0.3048 -0.02849,-0.245506 -0.05302,-0.3048 -0.12607,-0.3048 -0.07413,0 -0.09715,-0.06031 -0.126056,-0.3302 -0.01945,-0.18161 -0.05377,-0.3302 -0.07626,-0.3302 -0.0225,0 -0.05661,-0.12573 -0.07581,-0.2794 -0.0277,-0.22168 -0.05371,-0.2794 -0.125899,-0.2794 -0.0757,0 -0.09559,-0.05733 -0.118381,-0.341246 -0.01507,-0.187685 -0.05249,-0.34961 -0.08316,-0.359833 -0.03067,-0.01022 -0.05576,-0.09669 -0.05576,-0.192154 0,-0.115012 -0.02403,-0.173567 -0.07121,-0.173567 -0.04924,0 -0.08213,-0.09405 -0.106588,-0.3048 -0.01946,-0.16764 -0.05599,-0.3048 -0.08119,-0.3048 -0.0252,0 -0.04581,-0.03429 -0.04581,-0.0762 0,-0.04191 -0.02286,-0.0762 -0.0508,-0.0762 -0.02794,0 -0.0508,-0.08001 -0.0508,-0.1778 0,-0.120196 -0.0235,-0.1778 -0.07254,-0.1778 -0.04984,0 -0.08347,-0.08747 -0.107453,-0.2794 -0.0192,-0.15367 -0.05513,-0.2794 -0.07986,-0.2794 -0.02472,0 -0.04495,-0.03429 -0.04495,-0.0762 0,-0.04191 -0.03429,-0.0762 -0.0762,-0.0762 -0.0508,0 -0.0762,-0.0508 -0.0762,-0.1524 0,-0.08382 -0.01994,-0.1524 -0.04431,-0.1524 -0.02437,0 -0.05893,-0.09144 -0.0768,-0.2032 -0.01787,-0.11176 -0.05508,-0.2032 -0.08269,-0.2032 -0.02761,0 -0.0502,-0.05715 -0.0502,-0.127 0,-0.07902 -0.02879,-0.127 -0.0762,-0.127 -0.04191,0 -0.0762,-0.03429 -0.0762,-0.0762 0,-0.04191 -0.01994,-0.0762 -0.04431,-0.0762 -0.02437,0 -0.05893,-0.09144 -0.0768,-0.2032 -0.01787,-0.11176 -0.05508,-0.2032 -0.08269,-0.2032 -0.02761,0 -0.0502,-0.05715 -0.0502,-0.127 0,-0.07902 -0.02879,-0.127 -0.0762,-0.127 -0.0465,0 -0.0762,-0.04737 -0.0762,-0.121565 0,-0.06686 -0.03429,-0.134723 -0.0762,-0.150806 -0.04191,-0.01608 -0.0762,-0.06425 -0.0762,-0.107035 0,-0.04279 -0.03429,-0.07779 -0.0762,-0.07779 -0.04741,0 -0.0762,-0.04798 -0.0762,-0.127 0,-0.06985 -0.02242,-0.127 -0.04983,-0.127 -0.02741,0 -0.06555,-0.06264 -0.08477,-0.139197 -0.03411,-0.135909 -0.130221,-0.267203 -0.195599,-0.267203 -0.06538,0 -0.161489,-0.131294 -0.1956,-0.267203 -0.02323,-0.09256 -0.06833,-0.139197 -0.1346,-0.139197 -0.0635,0 -0.111041,-0.04533 -0.131017,-0.124916 -0.01724,-0.0687 -0.0634,-0.151513 -0.102567,-0.18402 -0.03917,-0.03251 -0.07122,-0.102025 -0.07122,-0.154484 0,-0.05246 -0.02449,-0.09538 -0.05443,-0.09538 -0.02994,0 -0.08629,-0.02857 -0.125237,-0.0635 -0.157063,-0.140852 -0.224092,-0.1905 -0.25719,-0.1905 -0.01911,0 -0.100283,-0.06858 -0.180386,-0.1524 -0.0801,-0.08382 -0.179733,-0.1524 -0.2214,-0.1524 -0.04167,0 -0.07576,-0.0334 -0.07576,-0.07422 0,-0.11524 -0.193919,-0.268331 -0.385396,-0.304252 -0.102961,-0.01931 -0.173404,-0.06255 -0.173404,-0.106429 0,-0.04064 -0.03429,-0.0739 -0.0762,-0.0739 -0.04191,0 -0.0762,-0.02259 -0.0762,-0.0502 0,-0.02761 -0.09175,-0.06487 -0.20389,-0.0828 -0.158409,-0.02533 -0.210629,-0.05946 -0.234107,-0.153001 -0.02417,-0.09631 -0.06384,-0.120397 -0.198277,-0.120397 -0.09243,0 -0.176171,-0.02433 -0.186085,-0.05408 -0.0099,-0.02974 -0.114689,-0.06704 -0.232834,-0.08289 -0.159067,-0.02134 -0.214807,-0.05172 -0.214807,-0.117076 0,-0.08968 -0.208806,-0.15055 -0.5207,-0.151799 -0.07683,-3.07e-4 -0.1397,-0.02204 -0.1397,-0.04828 0,-0.02625 -0.16002,-0.06349 -0.3556,-0.08276 -0.250284,-0.02466 -0.3556,-0.05566 -0.3556,-0.104676 0,-0.0497 -0.07273,-0.06964 -0.254,-0.06964 -0.1397,0 -0.254,-0.02286 -0.254,-0.0508 0,-0.02794 -0.12573,-0.0508 -0.2794,-0.0508 -0.15367,0 -0.2794,-0.02286 -0.2794,-0.0508 0,-0.02903 -0.1524,-0.0508 -0.3556,-0.0508 -0.270149,0 -0.3556,-0.01701 -0.3556,-0.07079 0,-0.05617 -0.173146,-0.07843 -0.8382,-0.107765 -0.46101,-0.02034 -0.8382,-0.05706 -0.8382,-0.08161 0,-0.02455 -0.20574,-0.04463 -0.4572,-0.04463 -0.270933,0 -0.4572,-0.0207 -0.4572,-0.0508 0,-0.02963 -0.169333,-0.0508 -0.4064,-0.0508 -0.312742,0 -0.4064,-0.01624 -0.4064,-0.07049 0,-0.05501 -0.156194,-0.07858 -0.7112,-0.107312 -0.39116,-0.02025 -0.7112,-0.05461 -0.7112,-0.07636 0,-0.02175 -0.25146,-0.05596 -0.5588,-0.07604 -0.490038,-0.03201 -0.5588,-0.04772 -0.5588,-0.127663 0,-0.07958 -0.06774,-0.09578 -0.5334,-0.127516 -0.29337,-0.02 -0.5334,-0.05649 -0.5334,-0.08109 0,-0.0246 -0.09144,-0.04473 -0.2032,-0.04473 -0.146755,0 -0.2032,-0.02117 -0.2032,-0.0762 0,-0.05503 -0.05644,-0.0762 -0.2032,-0.0762 -0.11176,0 -0.2032,-0.02048 -0.2032,-0.04551 0,-0.02503 -0.18288,-0.0617 -0.4063998,-0.08149 -0.22352,-0.01979 -0.4064,-0.05645 -0.4064,-0.08149 0,-0.02503 -0.06858,-0.04551 -0.1524,-0.04551 -0.095964,0 -0.1524,-0.02605 -0.1524,-0.07035 0,-0.04717 -0.092049,-0.08185 -0.2794,-0.105256 -0.15367,-0.0192 -0.2794,-0.05612 -0.2794,-0.08205 0,-0.02593 -0.05715,-0.04715 -0.127,-0.04715 -0.079022,0 -0.127,-0.02879 -0.127,-0.0762 0,-0.04741 -0.047978,-0.0762 -0.127,-0.0762 -0.06985,0 -0.127,-0.02182 -0.127,-0.0485 0,-0.02667 -0.08001,-0.06351 -0.1778,-0.08185 -0.09779,-0.01835 -0.1778,-0.05367 -0.1778,-0.0785 0,-0.02483 -0.04572,-0.04515 -0.1016,-0.04515 -0.05588,0 -0.1018622,-0.02858 -0.1021828,-0.0635 -3.205e-4,-0.03493 -0.091761,-0.107182 -0.2032,-0.160572 -0.1114394,-0.05339 -0.2026171,-0.127685 -0.2026171,-0.1651 0,-0.03742 -0.031891,-0.06803 -0.070868,-0.06803 -0.038977,0 -0.1247024,-0.05676 -0.1905,-0.126122 -0.065798,-0.06937 -0.1596369,-0.126517 -0.2085319,-0.127 -0.048895,-4.83e-4 -0.0889,-0.03497 -0.0889,-0.07664 0,-0.04167 -0.06858,-0.141297 -0.1524,-0.2214 -0.08382,-0.0801 -0.1524,-0.163405 -0.1524,-0.185116 0,-0.02171 -0.05715,-0.09244 -0.127,-0.157175 -0.06985,-0.06473 -0.127,-0.164511 -0.127,-0.221725 0,-0.05823 -0.033279,-0.104026 -0.0756,-0.104026 -0.048917,0 -0.087068,-0.07172 -0.1080926,-0.2032 -0.017871,-0.11176 -0.052431,-0.2032 -0.0768,-0.2032 -0.024369,0 -0.044307,-0.05715 -0.044307,-0.127 0,-0.07902 -0.028787,-0.127 -0.0762,-0.127 -0.046713,0 -0.0762,-0.04751 -0.0762,-0.122766 0,-0.06752 -0.022076,-0.130387 -0.049057,-0.1397 -0.026981,-0.0093 -0.064646,-0.239819 -0.083698,-0.512234 -0.019052,-0.272415 -0.054127,-0.4953 -0.077943,-0.4953 -0.023816,0 -0.043302,-0.42291 -0.043302,-0.9398 0,-0.51689 0.019535,-0.9398 0.043411,-0.9398 0.023876,0 0.059574,-0.314325 0.079327,-0.6985 0.019754,-0.384175 0.057369,-0.706119 0.083589,-0.715433 0.02622,-0.0093 0.047673,-0.163618 0.047673,-0.3429 0,-0.255881 0.016383,-0.325966 0.0762,-0.325966 0.055033,0 0.0762,-0.05644 0.0762,-0.2032 0,-0.11176 0.020481,-0.2032 0.045513,-0.2032 0.025032,0 0.061701,-0.18288 0.081487,-0.4064 0.026267,-0.29673 0.055111,-0.4064 0.1068873,-0.4064 0.048865,0 0.070913,-0.06318 0.070913,-0.2032 0,-0.11176 0.02091,-0.2032 0.046466,-0.2032 0.025556,0 0.062532,-0.17145 0.082168,-0.381 0.019636,-0.20955 0.055877,-0.381 0.080534,-0.381 0.024657,0 0.044832,-0.08001 0.044832,-0.1778 0,-0.124178 0.022981,-0.1778 0.0762,-0.1778 0.055033,0 0.0762,-0.05645 0.0762,-0.2032 0,-0.11176 0.021476,-0.2032 0.047724,-0.2032 0.026248,0 0.063492,-0.16002 0.082764,-0.3556 0.029056,-0.294874 0.050579,-0.3556 0.1260327,-0.3556 0.074498,0 0.097403,-0.05986 0.1263541,-0.3302 0.019449,-0.18161 0.053238,-0.3302 0.075088,-0.3302 0.021849,0 0.055796,-0.16002 0.075438,-0.3556 0.025481,-0.253729 0.056064,-0.3556 0.1067557,-0.3556 0.045071,0 0.071044,-0.05572 0.071044,-0.1524 0,-0.08382 0.02286,-0.1524 0.0508,-0.1524 0.02794,0 0.0508,-0.09144 0.0508,-0.2032 0,-0.11176 0.02054,-0.2032 0.045644,-0.2032 0.025104,0 0.061714,-0.16002 0.081356,-0.3556 0.025481,-0.253729 0.056064,-0.3556 0.1067558,-0.3556 0.047327,0 0.071044,-0.05936 0.071044,-0.1778 0,-0.09779 0.02286,-0.1778 0.0508,-0.1778 0.02794,0 0.0508,-0.09144 0.0508,-0.2032 0,-0.11176 0.02286,-0.2032 0.0508,-0.2032 0.02794,0 0.0508,-0.09144 0.0508,-0.2032 0,-0.141309 0.021889,-0.2032 0.071866,-0.2032 0.052393,0 0.08154,-0.103238 0.1075684,-0.381 0.019636,-0.20955 0.053497,-0.381 0.075247,-0.381 0.021749,0 0.055733,-0.18288 0.075519,-0.4064 0.030277,-0.342037 0.050271,-0.4064 0.1262462,-0.4064 0.077622,0 0.095342,-0.06763 0.1264536,-0.4826 0.0199,-0.26543 0.056909,-0.4826 0.082241,-0.4826 0.025332,0 0.046059,-0.1143 0.046059,-0.254 0,-0.191911 0.018627,-0.254 0.0762,-0.254 0.059267,0 0.0762,-0.06773 0.0762,-0.3048 0,-0.16764 0.020518,-0.3048 0.045596,-0.3048 0.025078,0 0.062125,-0.30861 0.082327,-0.6858 0.020202,-0.37719 0.056834,-0.6858 0.081404,-0.6858 0.02457,0 0.044673,-0.21717 0.044673,-0.4826 0,-0.395111 0.013814,-0.4826 0.0762,-0.4826 0.066095,0 0.0762,-0.208845 0.0762,-1.5748 0,-1.365956 -0.010105,-1.5748 -0.0762,-1.5748 -0.062089,0 -0.0762,-0.08467 -0.0762,-0.4572 0,-0.25146 -0.019919,-0.4572 -0.044264,-0.4572 -0.024345,0 -0.060562,-0.25146 -0.080482,-0.5588 -0.01992,-0.30734 -0.057151,-0.5588 -0.082736,-0.5588 -0.025585,0 -0.046518,-0.09144 -0.046518,-0.2032 0,-0.146755 -0.021167,-0.2032 -0.0762,-0.2032 -0.056444,0 -0.0762,-0.05927 -0.0762,-0.2286 0,-0.12573 -0.021215,-0.2286 -0.047145,-0.2286 -0.02593,0 -0.062854,-0.12573 -0.082053,-0.2794 -0.027315,-0.21862 -0.054198,-0.2794 -0.1235794,-0.2794 -0.068926,0 -0.095603,-0.05853 -0.119804,-0.262872 -0.017123,-0.14458 -0.052356,-0.276025 -0.078295,-0.2921 -0.025939,-0.01607 -0.063429,-0.137813 -0.083311,-0.270528 -0.023139,-0.154458 -0.061496,-0.2413 -0.1065805,-0.2413 -0.041261,0 -0.070432,-0.0526 -0.070432,-0.127 0,-0.06985 -0.02286,-0.127 -0.0508,-0.127 -0.02794,0 -0.0508,-0.04572 -0.0508,-0.1016 0,-0.05588 -0.02286,-0.1016 -0.0508,-0.1016 -0.02794,0 -0.0508,-0.05715 -0.0508,-0.127 0,-0.07902 -0.028787,-0.127 -0.0762,-0.127 -0.047665,0 -0.0762,-0.04815 -0.0762,-0.128594 0,-0.070727 -0.03429,-0.1417528 -0.0762,-0.1578352 -0.04191,-0.016082 -0.0762,-0.072515 -0.0762,-0.1254057 0,-0.052891 -0.02286,-0.096165 -0.0508,-0.096165 -0.02794,0 -0.0508,-0.04572 -0.0508,-0.1016 0,-0.056445 -0.033867,-0.1016 -0.0762,-0.1016 -0.04191,0 -0.0762,-0.032611 -0.0762,-0.072469 0,-0.087979 1.8056855,-1.9177932 2.3342594,-2.3654505 0.2593008,-0.2196057 0.3858286,-0.298416 0.4018643,-0.2503089 0.012873,0.038618 0.054021,0.1008303 0.091441,0.13825 0.03742,0.03742 0.068036,0.1023257 0.068036,0.1442357 0,0.088228 0.1200218,0.2213429 0.1995718,0.2213429 0.02994,0 0.05443,0.054704 0.05443,0.1215649 0,0.066861 0.03429,0.1347233 0.0762,0.1508057 0.04191,0.016082 0.0762,0.087108 0.0762,0.157835 0,0.080439 0.02853,0.1285943 0.0762,0.1285943 0.04191,0 0.0762,0.03429 0.0762,0.0762 0,0.04191 0.02286,0.0762 0.0508,0.0762 0.02794,0 0.0508,0.05715 0.0508,0.127 0,0.06985 0.02259,0.127 0.0502,0.127 0.02761,0 0.06482,0.09144 0.08269,0.2032 0.0196,0.1225574 0.06016,0.2032 0.102201,0.2032 0.03834,0 0.06971,0.03429 0.06971,0.0762 0,0.04191 0.02286,0.0762 0.0508,0.0762 0.02794,0 0.0508,0.05715 0.0508,0.127 0,0.06985 0.02027,0.127 0.04503,0.127 0.02477,0 0.06046,0.10287 0.07931,0.2286 0.02236,0.1491216 0.05969,0.2286 0.107368,0.2286 0.04932,0 0.07309,0.056437 0.07309,0.1735666 0,0.095462 0.02396,0.1815533 0.05324,0.1913146 0.02928,0.00976 0.06677,0.1488264 0.08331,0.3090336 0.02402,0.232694 0.04803,0.291285 0.1194,0.291285 0.07367,0 0.09577,0.06461 0.12598,0.3683 0.02015,0.202565 0.05582,0.380493 0.07925,0.395396 0.02343,0.0149 0.05827,0.214928 0.07742,0.4445 0.02933,0.351679 0.04891,0.417404 0.124375,0.417404 0.07954,0 0.09366,0.07958 0.126208,0.7112 0.02015,0.39116 0.05657,0.7112 0.08093,0.7112 0.02436,0 0.04429,0.33147 0.04429,0.7366 0,0.620889 0.01197,0.7366 0.0762,0.7366 0.06483,0 0.0762,0.132644 0.0762,0.889 0,0.756356 -0.01137,0.889 -0.0762,0.889 -0.06483,0 -0.0762,0.132644 -0.0762,0.889 0,0.48895 -0.01994,0.889 -0.04432,0.889 -0.02438,0 -0.06099,0.43434 -0.08136,0.9652 -0.03361,0.875646 -0.04539,0.9652 -0.126976,0.9652 -0.08041,0 -0.09382,0.08066 -0.126679,0.762 -0.02021,0.4191 -0.05467,0.762 -0.07658,0.762 -0.02191,0 -0.05636,0.30861 -0.07656,0.6858 -0.03285,0.613266 -0.04641,0.6858 -0.128286,0.6858 -0.0825,0 -0.09519,0.07533 -0.128301,0.762 -0.02021,0.4191 -0.05668,0.762 -0.08104,0.762 -0.02436,0 -0.04429,0.27432 -0.04429,0.6096 0,0.508 -0.0127,0.6096 -0.0762,0.6096 -0.0641,0 -0.0762,0.112889 -0.0762,0.7112 0,0.598311 0.0121,0.7112 0.0762,0.7112 0.0629,0 0.0762,0.09313 0.0762,0.5334 0,0.29337 0.02016,0.5334 0.04479,0.5334 0.02463,0 0.06098,0.19431 0.08076,0.4318 0.03067,0.368137 0.04941,0.4318 0.127155,0.4318 0.07243,0 0.09837,0.05747 0.126095,0.2794 0.0192,0.15367 0.05612,0.2794 0.08205,0.2794 0.02593,0 0.04746,0.06287 0.04784,0.1397 0.0012,0.235203 0.05667,0.3683 0.153595,0.3683 0.06052,0 0.103007,0.05176 0.125111,0.1524 0.01841,0.08382 0.05452,0.1524 0.08024,0.1524 0.02572,0 0.04676,0.05715 0.04676,0.127 0,0.06985 0.0261,0.127 0.058,0.127 0.08325,0 0.3484,0.289612 0.3484,0.380537 0,0.04216 0.03386,0.07666 0.07523,0.07666 0.04138,0 0.08958,0.05715 0.107107,0.127 0.01969,0.07843 0.06795,0.127 0.126217,0.127 0.100365,0 0.402644,0.265676 0.402644,0.353887 0,0.02888 0.03429,0.05251 0.0762,0.05251 0.04191,0 0.0762,0.02038 0.0762,0.04529 0,0.02491 0.05715,0.05964 0.127,0.07717 0.06985,0.01753 0.127,0.06573 0.127,0.107107 0,0.04638 0.0487,0.07523 0.127,0.07523 0.06985,0 0.127,0.02032 0.127,0.04515 0,0.02483 0.08001,0.06016 0.1778,0.0785 0.09779,0.01834 0.1778,0.05518 0.1778,0.08185 0,0.02667 0.05715,0.0485 0.127,0.0485 0.07902,0 0.127,0.02879 0.127,0.0762 0,0.04191 0.03429,0.0762 0.0762,0.0762 0.04191,0 0.0762,0.02122 0.0762,0.04714 0,0.02593 0.12573,0.06285 0.2794,0.08205 0.15367,0.0192 0.2794,0.05513 0.2794,0.07986 0,0.02472 0.05715,0.04495 0.127,0.04495 0.07902,0 0.127,0.02879 0.127,0.0762 0,0.05322 0.05362,0.0762 0.1778,0.0762 0.09779,0 0.1778,0.02062 0.1778,0.04581 0,0.0252 0.13716,0.06173 0.3048,0.08119 0.210754,0.02446 0.3048,0.05735 0.3048,0.106588 0,0.04921 0.06277,0.07121 0.2032,0.07121 0.11176,0 0.2032,0.02286 0.2032,0.0508 0,0.02794 0.06858,0.0508 0.1524,0.0508 0.08382,0 0.1524,0.02048 0.1524,0.04551 0,0.02503 0.18288,0.0617 0.4064,0.08149 0.29673,0.02627 0.4064,0.05511 0.4064,0.106888 0,0.05209 0.07417,0.07091 0.2794,0.07091 0.15367,0 0.2794,0.02286 0.2794,0.0508 0,0.02794 0.09144,0.0508 0.2032,0.0508 0.11176,0 0.2032,0.02286 0.2032,0.0508 0,0.02794 0.09144,0.0508 0.2032,0.0508 0.139877,0 0.2032,0.02207 0.2032,0.07081 0,0.05262 0.117451,0.0801 0.4572,0.106993 0.25146,0.0199 0.4572,0.05457 0.4572,0.07703 0,0.02247 0.19431,0.05703 0.4318,0.07682 0.36644,0.03052 0.4318,0.04964 0.4318,0.126273 0,0.07601 0.0643,0.096 0.4064,0.126278 0.22352,0.01979 0.4064,0.05646 0.4064,0.08149 0,0.02503 0.09144,0.04551 0.2032,0.04551 0.146755,0 0.2032,0.02117 0.2032,0.0762 0,0.0508 0.0508,0.0762 0.1524,0.0762 0.08382,0 0.1524,0.01968 0.1524,0.04372 0,0.02405 0.119876,0.05792 0.266391,0.07527 0.146515,0.01735 0.27415,0.05483 0.283634,0.08328 0.0095,0.02845 0.09535,0.05172 0.190808,0.05172 0.115613,0 0.173567,0.02395 0.173567,0.07173 0,0.0441 0.07827,0.08496 0.2032,0.106065 0.11176,0.01888 0.2032,0.05518 0.2032,0.08067 0,0.02548 0.06858,0.04633 0.1524,0.04633 0.08382,0 0.1524,0.02286 0.1524,0.0508 0,0.02794 0.05715,0.0508 0.127,0.0508 0.07587,0 0.127,0.02906 0.127,0.07216 0,0.03969 0.06858,0.08723 0.1524,0.105636 0.08382,0.01841 0.1524,0.05452 0.1524,0.08024 0,0.02572 0.03429,0.04676 0.0762,0.04676 0.04191,0 0.0762,0.03429 0.0762,0.0762 0,0.04741 0.04798,0.0762 0.127,0.0762 0.06985,0 0.127,0.02242 0.127,0.04983 0,0.02741 0.06264,0.06555 0.139197,0.08477 0.15198,0.03815 0.267203,0.131879 0.267203,0.217371 0,0.02994 0.03429,0.05443 0.0762,0.05443 0.04191,0 0.0762,0.02286 0.0762,0.0508 0,0.02794 0.03506,0.0508 0.07791,0.0508 0.04285,0 0.144951,0.06858 0.226888,0.1524 0.08194,0.08382 0.160915,0.1524 0.175507,0.1524 0.0585,0 0.230893,0.179114 0.230893,0.23989 0,0.0357 0.02307,0.06491 0.05126,0.06491 0.07175,0 0.355138,0.27801 0.355138,0.3484 0,0.0319 0.0226,0.058 0.05022,0.058 0.08921,0 0.254581,0.172331 0.254581,0.26529 0,0.05461 0.03786,0.09031 0.09576,0.09031 0.101572,0 0.235711,0.166767 0.267299,0.332318 0.0108,0.05661 0.06801,0.106477 0.132763,0.115716 0.08263,0.01179 0.113781,0.05047 0.113781,0.141294 0,0.06878 0.03204,0.137357 0.07121,0.152386 0.03916,0.01503 0.08592,0.105751 0.103902,0.201605 0.01945,0.103653 0.06264,0.174281 0.106594,0.174281 0.04064,0 0.0739,0.03429 0.0739,0.0762 0,0.04191 0.02286,0.0762 0.0508,0.0762 0.02794,0 0.0508,0.05715 0.0508,0.127 0,0.06985 0.02286,0.127 0.0508,0.127 0.02794,0 0.0508,0.03429 0.0508,0.0762 0,0.04191 0.03137,0.0762 0.06971,0.0762 0.04204,0 0.0826,0.08064 0.1022,0.2032 0.01787,0.11176 0.05508,0.2032 0.08269,0.2032 0.02761,0 0.0502,0.05715 0.0502,0.127 0,0.06985 0.02286,0.127 0.0508,0.127 0.02794,0 0.0508,0.06858 0.0508,0.1524 0,0.09872 0.02575,0.1524 0.07309,0.1524 0.04768,0 0.08501,0.07948 0.107368,0.2286 0.01885,0.12573 0.05455,0.2286 0.07931,0.2286 0.02477,0 0.04503,0.08001 0.04503,0.1778 0,0.124178 0.02298,0.1778 0.0762,0.1778 0.0508,0 0.0762,0.0508 0.0762,0.1524 0,0.08382 0.01991,0.1524 0.04424,0.1524 0.02433,0 0.06,0.16002 0.07928,0.3556 0.01927,0.19558 0.05652,0.3556 0.08276,0.3556 0.02625,0 0.04772,0.09144 0.04772,0.2032 0,0.146756 0.02117,0.2032 0.0762,0.2032 0.0574,0 0.0762,0.06162 0.0762,0.249767 0,0.137372 0.02172,0.257387 0.04827,0.2667 0.02655,0.0093 0.06412,0.228388 0.08349,0.486833 0.01937,0.258445 0.0548,0.4699 0.07873,0.4699 0.02393,0 0.04351,0.13716 0.04351,0.3048 0,0.237067 0.01693,0.3048 0.0762,0.3048 0.05757,0 0.0762,0.06209 0.0762,0.254 0,0.1397 0.0201,0.254 0.04467,0.254 0.02457,0 0.0612,0.30861 0.0814,0.6858 0.0287,0.535869 0.05225,0.6858 0.107727,0.6858 0.05219,0 0.071,0.07401 0.071,0.2794 0,0.15367 0.01949,0.2794 0.04332,0.2794 0.02383,0 0.05911,0.245745 0.0784,0.5461 0.0193,0.300355 0.05695,0.55372 0.08368,0.563033 0.02673,0.0093 0.0486,0.163619 0.0486,0.3429 0,0.255882 0.01638,0.325967 0.0762,0.325967 0.05644,0 0.0762,0.05927 0.0762,0.2286 0,0.12573 0.02286,0.2286 0.0508,0.2286 0.02794,0 0.0508,0.07666 0.0508,0.170348 0,0.09369 0.01469,0.310862 0.03264,0.4826 0.02607,0.249453 0.0503,0.312252 0.120448,0.312252 0.07406,0 0.09341,0.07159 0.123577,0.4572 0.01967,0.25146 0.05396,0.4572 0.07619,0.4572 0.02223,0 0.05619,0.16002 0.07546,0.3556 0.02556,0.259345 0.05483,0.3556 0.108164,0.3556 0.04738,0 0.07312,0.05365 0.07312,0.1524 0,0.08382 0.02286,0.1524 0.0508,0.1524 0.02794,0 0.0508,0.09144 0.0508,0.2032 0,0.11176 0.02286,0.2032 0.0508,0.2032 0.02794,0 0.0508,0.08001 0.0508,0.1778 0,0.117602 0.02382,0.1778 0.07035,0.1778 0.04717,0 0.08185,0.09205 0.105256,0.2794 0.0192,0.15367 0.05612,0.2794 0.08205,0.2794 0.02593,0 0.04714,0.04572 0.04714,0.1016 0,0.05588 0.02286,0.1016 0.0508,0.1016 0.02794,0 0.0508,0.07833 0.0508,0.174075 0,0.124697 0.02522,0.179453 0.0889,0.193034 0.223828,0.04773 -1.893195,0.315525 -2.966102,0.375197 l -0.616601,0.03429 z M 23.325667,54.62078 C 17.818501,53.72656 12.996283,51.403854 8.9507263,47.696836 8.6345562,47.407123 8.616081,47.379466 8.7387203,47.379466 c 0.073891,0 0.1343469,0.02286 0.1343469,0.0508 0,0.03048 0.2032,0.0508 0.508,0.0508 0.4176889,0 0.508,0.01355 0.508,0.0762 0,0.06397 0.1100666,0.0762 0.6857998,0.0762 0.37719,0 0.6858,0.01956 0.6858,0.04348 0,0.02391 0.760095,0.06006 1.6891,0.08034 0.942957,0.02058 1.69658,0.05748 1.706033,0.08353 0.0093,0.02566 0.243629,0.04666 0.5207,0.04666 0.413926,0 0.503767,0.01359 0.503767,0.0762 0,0.0585 0.06491,0.0762 0.2794,0.0762 0.15367,0 0.2794,0.01959 0.2794,0.04354 0,0.02395 0.234315,0.05954 0.5207,0.07911 0.286385,0.01956 0.52832,0.05712 0.537633,0.08346 0.0093,0.02634 0.08361,0.04789 0.1651,0.04789 0.09784,0 0.148167,0.02588 0.148167,0.0762 0,0.05322 0.05362,0.0762 0.1778,0.0762 0.09779,0 0.1778,0.02026 0.1778,0.04503 0,0.02477 0.10287,0.06046 0.2286,0.07931 0.149122,0.02236 0.2286,0.05969 0.2286,0.107368 0,0.04966 0.05699,0.07309 0.1778,0.07309 0.09779,0 0.1778,0.02032 0.1778,0.04515 0,0.02483 0.08001,0.06016 0.1778,0.0785 0.09779,0.01835 0.1778,0.05518 0.1778,0.08185 0,0.02667 0.04252,0.0485 0.09448,0.0485 0.05197,0 0.135649,0.05482 0.185962,0.121812 0.05625,0.07491 0.165219,0.133605 0.282987,0.152437 0.148062,0.02368 0.195192,0.05643 0.207738,0.144368 0.0091,0.06404 0.05906,0.121917 0.114236,0.132443 0.0539,0.01028 0.129832,0.05052 0.168729,0.08942 0.0389,0.0389 0.114808,0.07072 0.168692,0.07072 0.05389,0 0.09797,0.03079 0.09797,0.06843 0,0.09804 0.175809,0.287173 0.26694,0.287173 0.04247,0 0.131232,0.06837 0.197242,0.151939 0.06601,0.08357 0.138796,0.152146 0.161746,0.1524 0.05347,5.91e-4 0.186872,0.133164 0.186872,0.185715 0,0.05939 0.259844,0.271946 0.332448,0.271946 0.03445,0 0.07766,0.08001 0.096,0.1778 0.01835,0.09779 0.05518,0.1778 0.08185,0.1778 0.02667,0 0.0485,0.03429 0.0485,0.0762 0,0.04191 0.02595,0.0762 0.05767,0.0762 0.03172,0 0.110639,0.05715 0.175374,0.127 0.06473,0.06985 0.141651,0.127 0.170925,0.127 0.02927,0 0.05323,0.03525 0.05323,0.07834 0,0.0733 0.03249,0.12459 0.1905,0.30079 0.03493,0.03894 0.0635,0.106732 0.0635,0.150637 0,0.04391 0.02449,0.07983 0.05443,0.07983 0.08549,0 0.179227,0.115223 0.217371,0.267203 0.02276,0.09068 0.06861,0.139197 0.131532,0.139197 0.06732,0 0.107393,0.04916 0.132226,0.162222 0.0196,0.08922 0.06713,0.193725 0.105636,0.232229 0.0385,0.0385 0.07001,0.114093 0.07001,0.167977 0,0.05388 0.03237,0.09797 0.07194,0.09797 0.03957,0 0.102298,0.06858 0.139401,0.1524 0.0371,0.08382 0.0837,0.1524 0.103556,0.1524 0.01985,0 0.05111,0.08001 0.06945,0.1778 0.0191,0.101832 0.0635,0.1778 0.103902,0.1778 0.0388,0 0.07055,0.03275 0.07055,0.07278 0,0.04003 0.04572,0.08729 0.1016,0.105023 0.06492,0.0206 0.1016,0.07686 0.1016,0.155823 0,0.07176 0.02967,0.123577 0.07077,0.123577 0.07767,0 0.132435,0.106745 0.132435,0.258155 0,0.118441 0.01011,0.11875 -0.889,-0.02724 z m 12.044896,-0.92123 c -0.01688,-0.044 -0.0307,-0.135274 -0.0307,-0.202839 0,-0.06756 -0.02286,-0.122845 -0.0508,-0.122845 -0.02794,0 -0.0508,-0.08001 -0.0508,-0.1778 0,-0.120854 -0.02342,-0.1778 -0.07312,-0.1778 -0.05333,0 -0.08261,-0.09625 -0.108163,-0.3556 -0.01927,-0.19558 -0.05495,-0.3556 -0.07928,-0.3556 -0.02433,0 -0.04424,-0.06858 -0.04424,-0.1524 0,-0.08382 -0.02286,-0.1524 -0.0508,-0.1524 -0.02794,0 -0.0508,-0.09144 -0.0508,-0.2032 0,-0.138259 -0.02226,-0.2032 -0.06965,-0.2032 -0.05119,0 -0.07913,-0.121175 -0.105414,-0.4572 -0.01967,-0.25146 -0.05691,-0.4572 -0.08275,-0.4572 -0.02584,0 -0.04699,-0.13716 -0.04699,-0.3048 0,-0.237067 -0.01693,-0.3048 -0.0762,-0.3048 -0.05757,0 -0.0762,-0.06209 -0.0762,-0.254 0,-0.1397 -0.02029,-0.254 -0.04509,-0.254 -0.0248,0 -0.06166,-0.32004 -0.08191,-0.7112 -0.02025,-0.39116 -0.05711,-0.7112 -0.08191,-0.7112 -0.0248,0 -0.04509,-0.21717 -0.04509,-0.4826 0,-0.395111 -0.01381,-0.4826 -0.0762,-0.4826 -0.06238,0 -0.0762,-0.08749 -0.0762,-0.4826 0,-0.26543 -0.02018,-0.4826 -0.04485,-0.4826 -0.02467,0 -0.06163,-0.52578 -0.08215,-1.1684 -0.02052,-0.64262 -0.05748,-1.1684 -0.08215,-1.1684 -0.02467,0 -0.04485,-0.27432 -0.04485,-0.6096 0,-0.508 -0.0127,-0.6096 -0.0762,-0.6096 -0.0629,0 -0.0762,-0.09313 -0.0762,-0.5334 0,-0.29337 -0.02009,-0.5334 -0.04463,-0.5334 -0.02455,0 -0.06127,-0.37719 -0.08161,-0.8382 -0.02934,-0.665054 -0.0516,-0.8382 -0.107765,-0.8382 -0.05378,0 -0.07079,-0.08545 -0.07079,-0.3556 0,-0.19558 -0.02031,-0.3556 -0.04513,-0.3556 -0.02482,0 -0.06166,-0.29718 -0.08187,-0.6604 -0.0202,-0.36322 -0.05704,-0.6604 -0.08187,-0.6604 -0.02482,0 -0.04513,-0.10287 -0.04513,-0.2286 0,-0.169333 -0.01976,-0.2286 -0.0762,-0.2286 -0.05757,0 -0.0762,-0.06209 -0.0762,-0.254 0,-0.1397 -0.02016,-0.254 -0.04479,-0.254 -0.02464,0 -0.06098,-0.19431 -0.08076,-0.4318 -0.03109,-0.373272 -0.04871,-0.4318 -0.129933,-0.4318 -0.07913,0 -0.09949,-0.05613 -0.129003,-0.3556 -0.01927,-0.19558 -0.0533,-0.3556 -0.07562,-0.3556 -0.02232,0 -0.05629,-0.12573 -0.07549,-0.2794 -0.02341,-0.18735 -0.05808,-0.2794 -0.105256,-0.2794 -0.04653,0 -0.07035,-0.0602 -0.07035,-0.1778 0,-0.09779 -0.02286,-0.1778 -0.0508,-0.1778 -0.02794,0 -0.0508,-0.04572 -0.0508,-0.1016 0,-0.05588 -0.02286,-0.1016 -0.0508,-0.1016 -0.02794,0 -0.05111,-0.06286 -0.05149,-0.1397 -0.0011,-0.217525 -0.05521,-0.3683 -0.132231,-0.3683 -0.04422,0 -0.07028,-0.05651 -0.07028,-0.1524 0,-0.08382 -0.02286,-0.1524 -0.0508,-0.1524 -0.02794,0 -0.0508,-0.05715 -0.0508,-0.127 0,-0.06985 -0.02286,-0.126999 -0.0508,-0.126999 -0.02794,0 -0.0508,-0.03429 -0.0508,-0.0762 0,-0.04191 -0.03137,-0.0762 -0.06971,-0.0762 -0.04204,0 -0.0826,-0.08064 -0.1022,-0.2032 -0.01787,-0.11176 -0.05216,-0.2032 -0.0762,-0.2032 -0.02404,0 -0.05833,-0.09144 -0.0762,-0.2032 -0.02474,-0.154746 -0.05561,-0.2032 -0.129456,-0.2032 -0.06643,0 -0.107503,-0.04799 -0.130436,-0.1524 -0.01841,-0.08382 -0.05452,-0.1524 -0.08024,-0.1524 -0.02572,0 -0.04676,-0.05715 -0.04676,-0.127 0,-0.07616 -0.02903,-0.127 -0.07253,-0.127 -0.03989,0 -0.112868,-0.09144 -0.162176,-0.2032 -0.04931,-0.11176 -0.108113,-0.2032 -0.130676,-0.2032 -0.02256,0 -0.04102,-0.03429 -0.04102,-0.0762 0,-0.04191 -0.03175,-0.0762 -0.07055,-0.0762 -0.04037,0 -0.08478,-0.07587 -0.103825,-0.177391 -0.02477,-0.132055 -0.06517,-0.185394 -0.158054,-0.208707 -0.06863,-0.01722 -0.124774,-0.06313 -0.124774,-0.10201 0,-0.03888 -0.02182,-0.07069 -0.0485,-0.07069 -0.02667,0 -0.06355,-0.08022 -0.08194,-0.178274 -0.02402,-0.128055 -0.06596,-0.186435 -0.148881,-0.207246 -0.06506,-0.01633 -0.156777,-0.110009 -0.210158,-0.214652 -0.111246,-0.218073 -0.193528,-0.314228 -0.268892,-0.314228 -0.02994,0 -0.05443,-0.02286 -0.05443,-0.0508 0,-0.05381 -0.183028,-0.254 -0.232229,-0.254 -0.03771,0 -0.174171,-0.136465 -0.174171,-0.174172 0,-0.0492 -0.200187,-0.232228 -0.254,-0.232228 -0.02794,0 -0.0508,-0.02449 -0.0508,-0.05443 0,-0.07514 -0.130862,-0.199212 -0.212272,-0.201261 -0.09833,-0.0025 -0.277461,-0.165526 -0.316306,-0.287917 -0.02224,-0.07008 -0.09335,-0.11733 -0.209345,-0.13909 -0.130332,-0.02445 -0.183739,-0.06515 -0.206975,-0.157728 -0.01722,-0.06863 -0.06476,-0.124775 -0.105638,-0.124775 -0.04088,0 -0.108611,-0.03429 -0.150521,-0.0762 -0.04191,-0.04191 -0.117809,-0.0762 -0.168665,-0.0762 -0.05509,0 -0.104764,-0.04901 -0.122898,-0.121258 -0.02239,-0.08923 -0.07752,-0.130092 -0.208707,-0.154702 -0.09805,-0.01839 -0.178273,-0.05527 -0.178273,-0.08194 0,-0.02667 -0.03429,-0.0485 -0.0762,-0.0485 -0.04191,0 -0.0762,-0.03429 -0.0762,-0.0762 0,-0.04191 -0.03429,-0.0762 -0.0762,-0.0762 -0.04191,0 -0.0762,-0.02259 -0.0762,-0.0502 0,-0.02761 -0.09144,-0.06482 -0.2032,-0.08269 -0.152276,-0.02435 -0.2032,-0.05608 -0.2032,-0.126632 0,-0.05805 -0.04869,-0.10636 -0.127,-0.126015 -0.06985,-0.01753 -0.127,-0.04966 -0.127,-0.0714 0,-0.02174 -0.10287,-0.05495 -0.2286,-0.07381 -0.178374,-0.02675 -0.2286,-0.05541 -0.2286,-0.130466 0,-0.07081 -0.04992,-0.10555 -0.189226,-0.131684 -0.104074,-0.01953 -0.220007,-0.06628 -0.257628,-0.103902 -0.03762,-0.03762 -0.135351,-0.0684 -0.217175,-0.0684 -0.09837,0 -0.148771,-0.02581 -0.148771,-0.0762 0,-0.04191 -0.03429,-0.0762 -0.0762,-0.0762 -0.04191,0 -0.0762,-0.02286 -0.0762,-0.0508 0,-0.02794 -0.05715,-0.0508 -0.127,-0.0508 -0.06985,0 -0.127,-0.02286 -0.127,-0.0508 0,-0.02794 -0.05715,-0.0508 -0.127,-0.0508 -0.07618,0 -0.127,-0.02903 -0.127,-0.07254 0,-0.04984 -0.08747,-0.08347 -0.2794,-0.107453 -0.15367,-0.0192 -0.2794,-0.05513 -0.2794,-0.07986 0,-0.02472 -0.05715,-0.04495 -0.127,-0.04495 -0.06985,0 -0.127,-0.02286 -0.127,-0.0508 0,-0.02794 -0.06858,-0.0508 -0.1524,-0.0508 -0.09522,0 -0.1524,-0.02613 -0.1524,-0.06964 0,-0.04901 -0.105316,-0.08001 -0.3556,-0.104676 -0.19558,-0.01927 -0.3556,-0.05652 -0.3556,-0.08276 0,-0.02625 -0.1143,-0.04772 -0.254,-0.04772 -0.191911,0 -0.254,-0.01863 -0.254,-0.0762 0,-0.05503 -0.05645,-0.0762 -0.2032,-0.0762 -0.11176,0 -0.2032,-0.02103 -0.2032,-0.04673 0,-0.0257 -0.2286,-0.06294 -0.508,-0.08274 -0.2794,-0.01981 -0.508,-0.05593 -0.508,-0.08027 0,-0.02434 -0.12573,-0.04426 -0.2794,-0.04426 -0.214489,0 -0.2794,-0.0177 -0.2794,-0.0762 0,-0.0585 -0.06491,-0.0762 -0.2794,-0.0762 -0.15367,0 -0.2794,-0.01992 -0.2794,-0.04426 0,-0.02434 -0.1143,-0.05942 -0.254,-0.07795 -0.1397,-0.01853 -0.254,-0.05577 -0.254,-0.08274 0,-0.02698 -0.06858,-0.04905 -0.1524,-0.04905 -0.0964,0 -0.1524,-0.026 -0.1524,-0.07076 0,-0.0775 -0.106687,-0.132435 -0.257187,-0.132435 -0.06054,0 -0.10835,-0.0473 -0.128352,-0.127 -0.01753,-0.06985 -0.06369,-0.127 -0.102568,-0.127 -0.03888,0 -0.07069,-0.02132 -0.07069,-0.04738 0,-0.02606 -0.04567,-0.06187 -0.101482,-0.07959 -0.05581,-0.01771 -0.115443,-0.08783 -0.132507,-0.155823 -0.01706,-0.06799 -0.06284,-0.123614 -0.101718,-0.123614 -0.03888,0 -0.07069,-0.03429 -0.07069,-0.0762 0,-0.04191 -0.01994,-0.0762 -0.04431,-0.0762 -0.02437,0 -0.05893,-0.09144 -0.0768,-0.2032 -0.01787,-0.11176 -0.05508,-0.2032 -0.08269,-0.2032 -0.02761,0 -0.0502,-0.05715 -0.0502,-0.127 0,-0.07902 -0.02879,-0.127 -0.0762,-0.127 -0.0508,0 -0.0762,-0.0508 -0.0762,-0.1524 0,-0.08382 -0.02048,-0.1524 -0.04551,-0.1524 -0.02503,0 -0.0617,-0.18288 -0.08149,-0.4064 -0.03034,-0.342723 -0.05018,-0.4064 -0.126621,-0.4064 -0.08057,0 -0.09477,-0.07484 -0.127755,-0.6731 -0.02041,-0.370205 -0.05587,-0.685024 -0.07879,-0.699597 -0.02293,-0.01457 -0.05795,-0.488919 -0.07783,-1.0541 -0.02852,-0.810531 -0.05063,-1.027603 -0.104676,-1.027603 -0.05527,0 -0.06852,-0.201425 -0.06852,-1.0414 0,-0.6604 -0.01858,-1.0414 -0.0508,-1.0414 -0.03204,0 -0.0508,-0.347133 -0.0508,-0.9398 0,-0.592667 -0.01876,-0.9398 -0.0508,-0.9398 -0.02963,0 -0.0508,-0.169333 -0.0508,-0.4064 0,-0.30854 -0.01662,-0.4064 -0.069,-0.4064 -0.05242,0 -0.07767,-0.14955 -0.105056,-0.6223 -0.01983,-0.342265 -0.05736,-0.62992 -0.0834,-0.639233 -0.02604,-0.0093 -0.04734,-0.129329 -0.04734,-0.2667 0,-0.137372 -0.02286,-0.249767 -0.0508,-0.249767 -0.02794,0 -0.0508,-0.08001 -0.0508,-0.1778 0,-0.117462 -0.02383,-0.1778 -0.07023,-0.1778 -0.05036,0 -0.08033,-0.107806 -0.105934,-0.381 -0.01964,-0.20955 -0.05437,-0.381 -0.07718,-0.381 -0.02281,0 -0.0574,-0.13716 -0.07685,-0.3048 -0.0283,-0.2438631 -0.05328,-0.3047998 -0.124912,-0.3047998 -0.07012,0 -0.09638,-0.057765 -0.121086,-0.2663914 -0.01735,-0.1465152 -0.05483,-0.2741502 -0.08328,-0.2836333 -0.02845,-0.00948 -0.05173,-0.072487 -0.05173,-0.1400086 0,-0.075259 -0.02949,-0.1227667 -0.0762,-0.1227667 -0.05322,0 -0.0762,-0.053622 -0.0762,-0.1778 0,-0.09779 -0.02259,-0.1778 -0.0502,-0.1778 -0.02761,0 -0.06482,-0.09144 -0.08269,-0.2032 -0.01787,-0.11176 -0.05243,-0.2032 -0.0768,-0.2032 -0.02437,0 -0.04431,-0.06858 -0.04431,-0.1524 0,-0.1010621 -0.02547,-0.1524 -0.0756,-0.1524 -0.04892,0 -0.08707,-0.071718 -0.108092,-0.2032 -0.01787,-0.11176 -0.05243,-0.2032 -0.0768,-0.2032 -0.02437,0 -0.04431,-0.03429 -0.04431,-0.0762 0,-0.04191 -0.03429,-0.0762 -0.0762,-0.0762 -0.04741,0 -0.0762,-0.047978 -0.0762,-0.1269999 0,-0.06985 -0.02085,-0.127 -0.04633,-0.127 -0.02548,0 -0.0618,-0.091512 -0.08069,-0.2033597 -0.02674,-0.1582778 -0.06151,-0.2101758 -0.156865,-0.2341071 -0.08676,-0.021774 -0.122508,-0.066203 -0.122508,-0.1522404 0,-0.066821 -0.02286,-0.1214928 -0.0508,-0.1214928 -0.02794,0 -0.0508,-0.057868 -0.0508,-0.1285944 0,-0.070727 -0.03429,-0.1417526 -0.0762,-0.157835 -0.04191,-0.016082 -0.0762,-0.061085 -0.0762,-0.1000056 0,-0.038921 -0.03429,-0.070765 -0.0762,-0.070765 -0.04321,0 -0.0762,-0.045559 -0.0762,-0.1052286 0,-0.057876 -0.03429,-0.1395185 -0.0762,-0.1814285 -0.04191,-0.04191 -0.0762,-0.129239 -0.0762,-0.1940643 0,-0.083355 -0.03718,-0.1271969 -0.127,-0.1497393 -0.082,-0.02058 -0.127,-0.067533 -0.127,-0.1325071 0,-0.1050669 -0.166165,-0.3038322 -0.254,-0.3038322 -0.25371,0 0.432564,-0.4882697 1.739979,-1.2379586 0.881966,-0.5057313 1.003221,-0.5556537 1.003221,-0.4130413 0,0.072896 0.17164,0.2794 0.232229,0.2794 0.0596,0 0.174171,0.1479837 0.174171,0.2249714 0,0.043906 0.02242,0.079829 0.04983,0.079829 0.02741,0 0.06418,0.05715 0.08171,0.1269999 0.01753,0.06985 0.06369,0.127 0.102568,0.127 0.03888,0 0.07069,0.029243 0.07069,0.064985 0,0.035742 0.04572,0.097939 0.1016,0.1382145 0.05588,0.040276 0.1016,0.1226664 0.1016,0.1830897 0,0.067138 0.03951,0.1201928 0.1016,0.1364296 0.05588,0.014613 0.1016,0.062999 0.1016,0.1075248 0,0.044526 0.02127,0.080956 0.04727,0.080956 0.026,0 0.05457,0.051435 0.0635,0.1143 0.01043,0.073455 0.05708,0.120101 0.130533,0.1305332 0.08319,0.011814 0.1143,0.050278 0.1143,0.1412943 0,0.068784 0.03429,0.1382195 0.0762,0.1543019 0.04191,0.016082 0.0762,0.083945 0.0762,0.1508056 0,0.066861 0.02879,0.121565 0.06398,0.121565 0.08239,0 0.167596,0.1378568 0.213007,0.3446153 0.02482,0.1129797 0.0726,0.1726911 0.154707,0.1932973 0.09744,0.024456 0.124922,0.074327 0.152845,0.2773547 0.02485,0.1807128 0.06026,0.255858 0.131153,0.2783584 0.05341,0.016951 0.09711,0.075 0.09711,0.1289976 0,0.053997 0.03289,0.098177 0.07309,0.098177 0.04768,0 0.08501,0.079478 0.107368,0.2286 0.01886,0.12573 0.05455,0.2285999 0.07931,0.2285999 0.02477,0 0.04503,0.03429 0.04503,0.0762 0,0.04191 0.02449,0.0762 0.05443,0.0762 0.09695,0 0.183164,0.1252156 0.219476,0.3187744 0.01952,0.1040741 0.05732,0.1892256 0.084,0.1892256 0.02667,0 0.0485,0.04572 0.0485,0.1016 0,0.056444 0.03387,0.1016 0.0762,0.1016 0.04741,0 0.0762,0.047978 0.0762,0.127 0,0.06985 0.02259,0.127 0.0502,0.127 0.02761,0 0.06482,0.09144 0.08269,0.2032 0.0196,0.1225574 0.06016,0.2032 0.102201,0.2032 0.03834,0 0.06971,0.03429 0.06971,0.0762 0,0.04191 0.02286,0.0762 0.0508,0.0762 0.02794,0 0.0508,0.05715 0.0508,0.127 0,0.06985 0.01992,0.127 0.04425,0.127 0.02434,0 0.05942,0.1143 0.07795,0.254 0.02307,0.1739309 0.05716,0.254 0.108145,0.254 0.04095,0 0.07445,0.04572 0.07445,0.1016 0,0.05588 0.02286,0.1015998 0.0508,0.1015998 0.02794,0 0.05111,0.06286 0.05149,0.1397 0.0012,0.235602 0.05665,0.3683 0.153975,0.3683 0.07344,0 0.09907,0.05641 0.126929,0.2794 0.0192,0.15367 0.05254,0.2794 0.07409,0.2794 0.02155,0 0.05461,0.10287 0.07346,0.2286 0.0261,0.174037 0.05621,0.2286 0.126161,0.2286 0.07158,0 0.09773,0.05191 0.118355,0.234883 0.01456,0.129186 0.05007,0.249467 0.07891,0.267293 0.02884,0.01783 0.06857,0.175017 0.08829,0.349317 0.02905,0.256773 0.05304,0.316907 0.126427,0.316907 0.06608,0 0.09986,0.05495 0.124904,0.2032 0.01888,0.11176 0.05518,0.2032 0.08066,0.2032 0.02548,0 0.04633,0.06858 0.04633,0.1524 0,0.09529 0.02612,0.1524 0.06971,0.1524 0.04204,0 0.0826,0.08064 0.102201,0.2032 0.01787,0.11176 0.05508,0.2032 0.08269,0.2032 0.02761,0 0.0502,0.05715 0.0502,0.127 0,0.06985 0.02286,0.127 0.0508,0.127 0.02794,0 0.0508,0.03429 0.0508,0.0762 0,0.04191 0.03228,0.0762 0.07174,0.0762 0.0441,0 0.08496,0.07827 0.106065,0.2032 0.01888,0.11176 0.05518,0.2032 0.08066,0.2032 0.02548,0 0.04633,0.04572 0.04633,0.1016 0,0.05588 0.02449,0.1016 0.05443,0.1016 0.09695,0 0.183165,0.125216 0.219477,0.318774 0.01952,0.104074 0.05732,0.189226 0.084,0.189226 0.02667,0 0.0485,0.03429 0.0485,0.0762 0,0.04191 0.03069,0.0762 0.0682,0.0762 0.03751,0 0.111806,0.08573 0.1651,0.1905 0.108531,0.213367 0.257717,0.3683 0.354636,0.3683 0.03542,0 0.07945,0.06858 0.09786,0.1524 0.02595,0.11814 0.06112,0.1524 0.156436,0.1524 0.06923,0 0.122964,0.0299 0.122964,0.06843 0,0.09868 0.158967,0.266693 0.2921,0.308729 0.06287,0.01985 0.1143,0.05741 0.1143,0.08347 0,0.02606 0.05467,0.04738 0.121493,0.04738 0.08711,0 0.130481,0.03581 0.153251,0.126536 0.02515,0.100188 0.07389,0.133273 0.234107,0.158892 0.121902,0.01949 0.202349,0.06007 0.202349,0.102065 0,0.03834 0.03429,0.06971 0.0762,0.06971 0.04191,0 0.0762,0.02286 0.0762,0.0508 0,0.02794 0.08001,0.0508 0.1778,0.0508 0.09779,0 0.1778,0.02172 0.1778,0.04828 0,0.02655 0.13716,0.0638 0.3048,0.08276 0.207532,0.02348 0.3048,0.05671 0.3048,0.104123 0,0.04738 0.06495,0.06964 0.2032,0.06964 0.11176,0 0.2032,0.02286 0.2032,0.0508 0,0.02794 0.12573,0.0508 0.2794,0.0508 0.15367,0 0.2794,0.02286 0.2794,0.0508 0,0.02794 0.09144,0.0508 0.2032,0.0508 0.138259,0 0.2032,0.02226 0.2032,0.06965 0,0.05119 0.121175,0.07913 0.4572,0.105413 0.25146,0.01967 0.4572,0.05691 0.4572,0.08275 0,0.02584 0.08001,0.04699 0.1778,0.04699 0.09779,0 0.1778,0.02286 0.1778,0.0508 0,0.02794 0.08001,0.0508 0.1778,0.0508 0.118643,0 0.1778,0.02369 0.1778,0.07121 0,0.04924 0.09405,0.08213 0.3048,0.106588 0.16764,0.01946 0.3048,0.05599 0.3048,0.08119 0,0.0252 0.06286,0.04612 0.1397,0.04651 0.233281,0.0012 0.3683,0.0568 0.3683,0.151777 0,0.07078 0.05924,0.09722 0.2794,0.124731 0.15367,0.0192 0.2794,0.05612 0.2794,0.08205 0,0.02593 0.03429,0.04715 0.0762,0.04715 0.04191,0 0.0762,0.03429 0.0762,0.0762 0,0.04741 0.04798,0.0762 0.127,0.0762 0.06985,0 0.127,0.02182 0.127,0.0485 0,0.02667 0.08515,0.06447 0.189225,0.084 0.188931,0.03544 0.318775,0.122254 0.318775,0.213126 0,0.02644 0.06991,0.06206 0.155348,0.07915 0.162726,0.03254 0.301852,0.139476 0.301852,0.232001 0,0.02994 0.0547,0.05443 0.121565,0.05443 0.06686,0 0.134723,0.03429 0.150805,0.0762 0.01608,0.04191 0.07731,0.0762 0.136064,0.0762 0.113809,0 0.251966,0.109428 0.251966,0.199571 0,0.02994 0.03592,0.05443 0.07983,0.05443 0.04391,0 0.111693,0.02858 0.150637,0.0635 0.157063,0.140852 0.224092,0.1905 0.257191,0.1905 0.01911,0 0.100283,0.06858 0.180386,0.1524 0.0801,0.08382 0.17329,0.1524 0.207082,0.1524 0.06622,0 0.293276,0.242095 0.293276,0.312701 0,0.02359 0.04644,0.0429 0.103194,0.0429 0.05676,0 0.118343,0.04 0.136857,0.0889 0.04652,0.122857 0.12593,0.196225 0.257618,0.238021 0.06156,0.01954 0.111931,0.07463 0.111931,0.122412 0,0.09229 0.125496,0.221179 0.268949,0.276227 0.04766,0.01829 0.08665,0.07925 0.08665,0.135478 0,0.06588 0.04387,0.113238 0.123396,0.133197 0.0757,0.019 0.157265,0.102343 0.211013,0.215609 0.09836,0.207271 0.19075,0.314156 0.271563,0.314156 0.02994,0 0.05443,0.03592 0.05443,0.07983 0,0.04391 0.02858,0.111693 0.0635,0.150637 0.158014,0.1762 0.1905,0.227495 0.1905,0.300791 0,0.04309 0.02449,0.07834 0.05443,0.07834 0.09695,0 0.183164,0.125215 0.219476,0.318774 0.02166,0.115446 0.06431,0.189226 0.109397,0.189226 0.04064,0 0.0739,0.03429 0.0739,0.0762 0,0.04191 0.02286,0.0762 0.0508,0.0762 0.02794,0 0.0508,0.03429 0.0508,0.0762 0,0.04191 0.01994,0.0762 0.04431,0.0762 0.02437,0 0.05893,0.09144 0.0768,0.2032 0.02102,0.131482 0.05917,0.2032 0.108093,0.2032 0.04677,0 0.0756,0.04843 0.0756,0.127 0,0.06985 0.02259,0.127 0.0502,0.127 0.02761,0 0.06482,0.09144 0.08269,0.2032 0.02403,0.150299 0.05644,0.2032 0.124487,0.2032 0.07009,0 0.100159,0.05444 0.126276,0.2286 0.01885,0.12573 0.05191,0.2286 0.07346,0.2286 0.02155,0 0.05489,0.12573 0.07409,0.2794 0.02768,0.221524 0.05373,0.2794 0.125778,0.2794 0.07173,0 0.09751,0.05611 0.122419,0.266391 0.01735,0.146515 0.05483,0.27415 0.08328,0.283633 0.02845,0.0095 0.05173,0.09535 0.05173,0.190809 0,0.113144 0.02424,0.173567 0.06964,0.173567 0.04901,0 0.08001,0.105316 0.104676,0.3556 0.01927,0.19558 0.05651,0.3556 0.08276,0.3556 0.02625,0 0.04772,0.09144 0.04772,0.2032 0,0.11176 0.02286,0.2032 0.0508,0.2032 0.02794,0 0.0508,0.12573 0.0508,0.2794 0,0.201458 0.01924,0.2794 0.06896,0.2794 0.07129,0 0.134236,0.396556 0.134236,0.845652 0,0.121631 0.02286,0.221148 0.0508,0.221148 0.02794,0 0.0508,0.10287 0.0508,0.2286 0,0.12573 0.02286,0.2286 0.0508,0.2286 0.02963,0 0.0508,0.169333 0.0508,0.4064 0,0.30676 0.01677,0.4064 0.06839,0.4064 0.06967,0 0.134806,0.764805 0.134806,1.582775 0,0.197883 0.02188,0.347625 0.0508,0.347625 0.03175,0 0.0508,0.304799 0.0508,0.812799 0,0.688623 0.01164,0.8128 0.0762,0.8128 0.0673,0 0.0762,0.699912 0.0762,5.9944 0,3.29692 0.01931,5.9944 0.04291,5.9944 0.0236,0 0.05874,0.462915 0.07809,1.0287 0.01984,0.580022 0.05652,1.036086 0.08409,1.045633 0.0269,0.0093 0.04891,0.175049 0.04891,0.3683 0,0.27846 0.01581,0.351367 0.0762,0.351367 0.05757,0 0.0762,0.06209 0.0762,0.254 0,0.1397 0.02018,0.254 0.04483,0.254 0.02466,0 0.0609,0.17145 0.08053,0.381 0.02603,0.277763 0.05518,0.381 0.107569,0.381 0.05237,0 0.07186,0.0689 0.07186,0.254 0,0.1397 0.02286,0.254 0.0508,0.254 0.02794,0 0.0508,0.05715 0.0508,0.127 0,0.06985 0.02062,0.127 0.04581,0.127 0.0252,0 0.06173,0.13716 0.08119,0.3048 0.02446,0.210754 0.05735,0.3048 0.106588,0.3048 0.04209,0 0.07121,0.05193 0.07121,0.127 0,0.06985 0.02286,0.127 0.0508,0.127 0.109432,0 0.04306,0.145354 -0.0889,0.194697 -0.07684,0.02873 -0.414407,0.165417 -0.750159,0.303748 -0.583796,0.240527 -1.93349,0.721173 -2.216344,0.789273 -0.09676,0.0233 -0.143002,0.01 -0.1651,-0.04763 z m 6.535203,-2.902173 c -0.03493,-0.01253 -0.0635,-0.05516 -0.0635,-0.09474 0,-0.03958 -0.03429,-0.07197 -0.0762,-0.07197 -0.05322,0 -0.0762,-0.05362 -0.0762,-0.1778 0,-0.09779 -0.02054,-0.1778 -0.04564,-0.1778 -0.0251,0 -0.06171,-0.16002 -0.08136,-0.3556 -0.02548,-0.253729 -0.05606,-0.3556 -0.106756,-0.3556 -0.04877,0 -0.07104,-0.06239 -0.07104,-0.198967 0,-0.109431 -0.0213,-0.206586 -0.04734,-0.2159 -0.02604,-0.0093 -0.06357,-0.296968 -0.0834,-0.639233 -0.01983,-0.342265 -0.05567,-0.6223 -0.07966,-0.6223 -0.02398,0 -0.0436,-0.25146 -0.0436,-0.5588 0,-0.462844 -0.01308,-0.5588 -0.0762,-0.5588 -0.06638,0 -0.0762,-0.245533 -0.0762,-1.905 0,-1.659466 0.0098,-1.905 0.0762,-1.905 0.06483,0 0.0762,-0.132644 0.0762,-0.889 0,-0.48895 0.01996,-0.889 0.04435,-0.889 0.02439,0 0.06115,-0.59436 0.08168,-1.3208 0.02054,-0.72644 0.05773,-1.3208 0.08265,-1.3208 0.02492,0 0.04532,-0.27432 0.04532,-0.6096 0,-0.483902 0.01443,-0.6096 0.06998,-0.6096 0.05652,0 0.07716,-0.239424 0.107311,-1.2446 0.02053,-0.68453 0.05763,-1.2446 0.08242,-1.2446 0.0248,0 0.04509,-0.2286 0.04509,-0.508 0,-0.417688 0.01355,-0.508 0.0762,-0.508 0.06209,0 0.0762,-0.08467 0.0762,-0.4572 0,-0.251459 0.02019,-0.457199 0.04487,-0.457199 0.02468,0 0.06164,-0.50292 0.08213,-1.1176 0.0205,-0.61468 0.05746,-1.1176 0.08213,-1.1176 0.02468,0 0.04487,-0.30861 0.04487,-0.6858 0,-0.575734 0.01223,-0.6858 0.0762,-0.6858 0.06669,0 0.0762,-0.307623 0.0762,-2.4638 0,-2.156178 -0.0095,-2.4638 -0.0762,-2.4638 -0.06239,0 -0.0762,-0.08749 -0.0762,-0.4826 0,-0.26543 -0.01992,-0.4826 -0.04426,-0.4826 -0.02435,0 -0.06056,-0.25146 -0.08048,-0.5588 -0.01992,-0.30734 -0.05715,-0.5588 -0.08273,-0.5588 -0.02559,0 -0.04652,-0.10287 -0.04652,-0.2286 0,-0.169334 -0.01976,-0.2286 -0.0762,-0.2286 -0.05757,0 -0.0762,-0.06209 -0.0762,-0.254 0,-0.1397 -0.02148,-0.254 -0.04772,-0.254 -0.02625,0 -0.06349,-0.16002 -0.08276,-0.3556 -0.02466,-0.250284 -0.05566,-0.3556 -0.104676,-0.3556 -0.04041,0 -0.06964,-0.0533 -0.06964,-0.127 0,-0.06985 -0.02023,-0.127 -0.04495,-0.127 -0.02472,0 -0.06066,-0.12573 -0.07986,-0.2794 -0.0192,-0.15367 -0.05612,-0.2794 -0.08205,-0.2794 -0.02593,0 -0.04715,-0.03429 -0.04715,-0.0762 0,-0.04191 -0.03429,-0.0762 -0.0762,-0.0762 -0.0508,0 -0.0762,-0.0508 -0.0762,-0.1524 0,-0.08382 -0.01994,-0.1524 -0.04431,-0.1524 -0.02437,0 -0.05893,-0.09144 -0.0768,-0.2032 -0.02527,-0.158035 -0.05494,-0.2032 -0.133493,-0.2032 -0.07307,0 -0.101,-0.03411 -0.101,-0.123372 0,-0.06785 -0.03264,-0.156009 -0.07253,-0.1959 -0.03989,-0.03989 -0.08779,-0.153893 -0.106449,-0.253338 -0.02517,-0.134144 -0.06545,-0.188722 -0.156071,-0.211468 -0.08794,-0.02207 -0.122152,-0.06596 -0.122152,-0.15669 0,-0.06932 -0.02104,-0.126032 -0.04676,-0.126032 -0.02572,0 -0.06183,-0.06858 -0.08024,-0.1524 -0.01841,-0.08382 -0.05555,-0.1524 -0.08254,-0.1524 -0.07838,0 -0.298455,-0.241776 -0.298455,-0.327891 0,-0.04318 -0.03275,-0.07851 -0.07278,-0.07851 -0.04003,0 -0.08806,-0.04816 -0.106747,-0.10703 -0.04932,-0.155386 -0.18565,-0.29937 -0.283459,-0.29937 -0.04809,0 -0.0986,-0.05498 -0.116678,-0.127 -0.01753,-0.06985 -0.0543,-0.127 -0.08171,-0.127 -0.02741,0 -0.04983,-0.03429 -0.04983,-0.0762 0,-0.04741 -0.04798,-0.0762 -0.127,-0.0762 -0.08843,0 -0.127,-0.02777 -0.127,-0.09144 0,-0.115805 -0.09599,-0.21336 -0.209936,-0.21336 -0.04841,0 -0.104004,-0.05037 -0.123542,-0.111931 -0.04692,-0.147827 -0.11358,-0.209983 -0.34088,-0.317845 -0.104083,-0.04939 -0.189242,-0.121486 -0.189242,-0.160212 0,-0.03873 -0.03429,-0.07041 -0.0762,-0.07041 -0.04191,0 -0.0762,-0.02038 -0.0762,-0.04529 0,-0.02491 -0.05715,-0.05964 -0.127,-0.07717 -0.06985,-0.01753 -0.127,-0.06573 -0.127,-0.107107 0,-0.04583 -0.0483,-0.07523 -0.123576,-0.07523 -0.07896,0 -0.135219,-0.03668 -0.155824,-0.1016 -0.01773,-0.05588 -0.07456,-0.1016 -0.126268,-0.1016 -0.148196,0 -0.254732,-0.05539 -0.254732,-0.132435 0,-0.03892 -0.04572,-0.07076 -0.1016,-0.07076 -0.05588,0 -0.1016,-0.02286 -0.1016,-0.0508 0,-0.02794 -0.04572,-0.0508 -0.1016,-0.0508 -0.05588,0 -0.1016,-0.02286 -0.1016,-0.0508 0,-0.02794 -0.04572,-0.0508 -0.1016,-0.0508 -0.05588,0 -0.1016,-0.03184 -0.1016,-0.07076 0,-0.07767 -0.106745,-0.132435 -0.258154,-0.132435 -0.0536,0 -0.09745,-0.02259 -0.09745,-0.0502 0,-0.02761 -0.09144,-0.06482 -0.2032,-0.08269 -0.14772,-0.02362 -0.2032,-0.05689 -0.2032,-0.121833 0,-0.06694 -0.05732,-0.09793 -0.2286,-0.12362 -0.12573,-0.01885 -0.2286,-0.05282 -0.2286,-0.07547 0,-0.02266 -0.09144,-0.05582 -0.2032,-0.07369 -0.154739,-0.02474 -0.2032,-0.05561 -0.2032,-0.129449 0,-0.08184 -0.05149,-0.10247 -0.3302,-0.132318 -0.18161,-0.01945 -0.3302,-0.05556 -0.3302,-0.08024 0,-0.02468 -0.03429,-0.04488 -0.0762,-0.04488 -0.04191,0 -0.0762,-0.03291 -0.0762,-0.07312 0,-0.05333 -0.09625,-0.08261 -0.3556,-0.108164 -0.195579,-0.01927 -0.355599,-0.05495 -0.355599,-0.07928 0,-0.02433 -0.06858,-0.04424 -0.1524,-0.04424 -0.08382,0 -0.1524,-0.02286 -0.1524,-0.0508 0,-0.02794 -0.12573,-0.0508 -0.2794,-0.0508 -0.201025,0 -0.2794,-0.01928 -0.2794,-0.06875 0,-0.06901 -0.485888,-0.134454 -0.998265,-0.134454 -0.121514,0 -0.220935,-0.02286 -0.220935,-0.0508 0,-0.02963 -0.169334,-0.0508 -0.4064,-0.0508 -0.327378,0 -0.4064,-0.01482 -0.4064,-0.0762 0,-0.06048 -0.07338,-0.0762 -0.3556,-0.0762 -0.19558,0 -0.3556,-0.01958 -0.3556,-0.04351 0,-0.02393 -0.211455,-0.05936 -0.4699,-0.07873 -0.258445,-0.01937 -0.47752,-0.05694 -0.486834,-0.08349 -0.0093,-0.02655 -0.09504,-0.04827 -0.1905,-0.04827 -0.120415,0 -0.173566,-0.02333 -0.173566,-0.0762 0,-0.04233 -0.04516,-0.0762 -0.1016,-0.0762 -0.05588,0 -0.1016,-0.01994 -0.1016,-0.04431 0,-0.02437 -0.09144,-0.05893 -0.2032,-0.0768 -0.11176,-0.01787 -0.2032,-0.05508 -0.2032,-0.08269 0,-0.02761 -0.04572,-0.0502 -0.1016,-0.0502 -0.05645,0 -0.1016,-0.03387 -0.1016,-0.0762 0,-0.04191 -0.03429,-0.0762 -0.0762,-0.0762 -0.04191,0 -0.0762,-0.02 -0.0762,-0.04445 0,-0.02445 -0.06858,-0.05817 -0.1524,-0.07493 -0.08939,-0.01788 -0.1524,-0.06251 -0.1524,-0.10795 0,-0.04784 -0.04649,-0.07747 -0.121565,-0.07747 -0.06686,0 -0.134724,-0.03429 -0.150806,-0.0762 -0.01608,-0.04191 -0.07731,-0.0762 -0.136064,-0.0762 -0.125728,0 -0.224652,-0.08791 -0.274049,-0.243551 -0.01952,-0.0615 -0.09111,-0.125774 -0.159102,-0.142838 -0.07645,-0.01919 -0.123614,-0.06769 -0.123614,-0.127118 0,-0.05285 -0.03266,-0.09609 -0.07257,-0.09609 -0.03991,0 -0.103845,-0.03127 -0.142069,-0.0695 -0.03822,-0.03822 -0.117594,-0.08476 -0.176378,-0.10342 -0.05879,-0.01866 -0.121019,-0.09025 -0.138299,-0.159102 -0.01728,-0.06885 -0.05548,-0.12518 -0.08488,-0.12518 -0.06406,0 -0.198603,-0.127547 -0.198603,-0.1882814 0,-0.045506 -0.184238,-0.2181184 -0.23281,-0.2181184 -0.04667,0 -0.151468,-0.1206436 -0.187538,-0.2159 -0.01852,-0.048895 -0.06867,-0.0889 -0.111458,-0.0889 -0.116171,0 -0.266092,-0.1721046 -0.305258,-0.3504276 -0.01903,-0.086665 -0.06708,-0.1575724 -0.106773,-0.1575724 -0.03969,0 -0.07216,-0.025894 -0.07216,-0.057541 0,-0.074981 -0.199414,-0.2472586 -0.286205,-0.2472586 -0.0371,0 -0.0818,-0.05715 -0.09933,-0.127 -0.01753,-0.06985 -0.05226,-0.127 -0.07717,-0.127 -0.02491,0 -0.04529,-0.03429 -0.04529,-0.0762 0,-0.04191 -0.02286,-0.0762 -0.0508,-0.0762 -0.02794,0 -0.0508,-0.03429 -0.0508,-0.0762 0,-0.04191 -0.02286,-0.0762 -0.0508,-0.0762 -0.09257,0 -0.256709,-0.2040438 -0.287338,-0.3571875 -0.01884,-0.094218 -0.06167,-0.1508125 -0.114122,-0.1508125 -0.0879,0 -0.25894,-0.1681616 -0.25894,-0.2545806 0,-0.027621 -0.03429,-0.050219 -0.0762,-0.050219 -0.04191,0 -0.0762,-0.03429 -0.0762,-0.0762 0,-0.04191 -0.02286,-0.0762 -0.0508,-0.0762 -0.02794,0 -0.0508,-0.034091 -0.0508,-0.075758 0,-0.041667 -0.06858,-0.1412969 -0.1524,-0.2213997 -0.08382,-0.080103 -0.1524,-0.168244 -0.1524,-0.195869 0,-0.073205 -0.179963,-0.2689731 -0.247259,-0.2689731 -0.03165,0 -0.05754,-0.037384 -0.05754,-0.083075 0,-0.045691 -0.05715,-0.1360396 -0.127,-0.2007744 -0.06985,-0.064735 -0.127,-0.1427427 -0.127,-0.1733509 0,-0.030608 -0.05397,-0.1059948 -0.11994,-0.1675256 -0.06597,-0.061531 -0.136071,-0.1632563 -0.155786,-0.2260563 -0.01971,-0.0628 -0.09147,-0.1281433 -0.15946,-0.1452072 -0.07645,-0.019188 -0.123614,-0.067687 -0.123614,-0.127118 0,-0.088074 -0.16389,-0.2992929 -0.232229,-0.2992929 -0.0596,0 -0.174171,-0.1479837 -0.174171,-0.2249714 0,-0.043906 -0.02242,-0.079829 -0.04983,-0.079829 -0.02741,0 -0.06418,-0.05715 -0.08171,-0.127 -0.01753,-0.06985 -0.05431,-0.127 -0.08172,-0.127 -0.07521,0 -0.240324,-0.2164146 -0.242246,-0.3175 -9.3e-4,-0.048895 -0.03598,-0.0889 -0.07789,-0.0889 -0.09655,0 -0.259055,-0.160669 -0.303208,-0.299785 -0.01884,-0.059354 -0.07693,-0.1066149 -0.131048,-0.1066149 -0.06291,0 -0.109188,-0.047732 -0.131161,-0.1352776 -0.04421,-0.1761649 -0.171285,-0.3219224 -0.28065,-0.3219224 -0.04779,0 -0.102873,-0.050369 -0.122412,-0.1119307 -0.0418,-0.1316877 -0.115164,-0.2110958 -0.238021,-0.2576174 -0.0489,-0.018515 -0.0889,-0.080101 -0.0889,-0.1368576 0,-0.056757 -0.02346,-0.1031943 -0.05214,-0.1031943 -0.02867,0 -0.155007,-0.10287 -0.280737,-0.2286 -0.12573,-0.12573 -0.252377,-0.2286 -0.281437,-0.2286 -0.02906,0 -0.0456,-0.062865 -0.03676,-0.1397 0.01525,-0.1325538 0.05754,-0.1535118 0.826738,-0.4097077 0.445865,-0.1485043 1.151474,-0.358928 1.56802,-0.46760825 0.662768,-0.17292168 0.766587,-0.18836991 0.831265,-0.12369226 0.04065,0.0406495 0.106565,0.0739082 0.146479,0.0739082 0.03992,0 0.07257,0.04572 0.07257,0.10159997 0,0.05588 0.03266,0.1016 0.07257,0.1016 0.03991,0 0.103846,0.031274 0.14207,0.069498 0.03822,0.038224 0.117594,0.084763 0.176378,0.1034204 0.05878,0.018657 0.121018,0.090253 0.138298,0.1591021 0.01728,0.068849 0.06527,0.1251796 0.106651,0.1251796 0.04138,0 0.07523,0.020382 0.07523,0.045293 0,0.024911 0.05715,0.059637 0.127,0.077168 0.06985,0.017531 0.127,0.06573 0.127,0.1071072 0,0.041378 0.02924,0.075232 0.06499,0.075232 0.03574,0 0.09794,0.04572 0.138215,0.1016 0.04028,0.05588 0.125332,0.1016 0.189014,0.1016 0.06368,0 0.116181,0.028575 0.116663,0.0635 0.0011,0.077444 0.220343,0.2921 0.298383,0.2921 0.03099,0 0.05634,0.043242 0.05634,0.096093 0,0.060132 0.04753,0.1080213 0.127,0.1279678 0.06985,0.017531 0.127,0.054299 0.127,0.081707 0,0.027408 0.03429,0.049832 0.0762,0.049832 0.04191,0 0.0762,0.024493 0.0762,0.054428 0,0.077918 0.132398,0.1995715 0.217198,0.1995715 0.08809,0 0.290802,0.1695412 0.290802,0.2432222 0,0.029428 0.06414,0.067592 0.142532,0.084811 0.07839,0.017218 0.17488,0.076184 0.214415,0.1310363 0.03953,0.054852 0.123985,0.099731 0.187667,0.099731 0.06368,0 0.115786,0.02921 0.115786,0.06491 0,0.083809 0.182165,0.2398898 0.27998,0.2398898 0.04159,0 0.07562,0.03429 0.07562,0.0762 0,0.047413 0.04798,0.0762 0.127,0.0762 0.06985,0 0.127,0.022425 0.127,0.049832 0,0.027408 0.05715,0.064176 0.127,0.081707 0.06985,0.017531 0.127,0.052257 0.127,0.077168 0,0.024911 0.03429,0.045293 0.0762,0.045293 0.04191,0 0.0762,0.03429 0.0762,0.0762 0,0.04191 0.03429,0.0762 0.0762,0.0762 0.04191,0 0.0762,0.019938 0.0762,0.044307 0,0.024369 0.09144,0.058929 0.2032,0.0768 0.131482,0.021025 0.2032,0.059175 0.2032,0.1080927 0,0.046773 0.04843,0.0756 0.127,0.0756 0.06985,0 0.127,0.02286 0.127,0.0508 0,0.02794 0.03239,0.0508 0.07197,0.0508 0.03958,0 0.08034,0.025108 0.09057,0.055796 0.01023,0.030688 0.126434,0.067951 0.258233,0.082807 0.155887,0.017571 0.239635,0.051332 0.239635,0.096604 0,0.038276 0.03429,0.069593 0.0762,0.069593 0.04191,0 0.0762,0.020851 0.0762,0.046335 0,0.025484 0.09144,0.061784 0.2032,0.080665 0.11176,0.018882 0.2032,0.055181 0.2032,0.080665 0,0.025484 0.04572,0.046335 0.1016,0.046335 0.05644,0 0.1016,0.033867 0.1016,0.0762 0,0.053219 0.05362,0.0762 0.1778,0.0762 0.09779,0 0.1778,0.02259 0.1778,0.0502 0,0.02761 0.09144,0.064821 0.2032,0.082693 0.14679,0.023473 0.2032,0.057039 0.2032,0.1209116 0,0.065258 0.05514,0.095815 0.210521,0.1166553 0.115787,0.01553 0.224372,0.050081 0.2413,0.076779 0.01693,0.026698 0.173654,0.064966 0.348279,0.08504 0.221114,0.025418 0.3175,0.058116 0.3175,0.1077094 0,0.039167 0.03429,0.071212 0.0762,0.071212 0.04191,0 0.0762,0.02286 0.0762,0.0508 0,0.02794 0.06858,0.0508 0.1524,0.0508 0.08382,0 0.1524,0.02286 0.1524,0.0508 0,0.02794 0.08001,0.0508 0.1778,0.0508 0.121472,0 0.1778,0.023341 0.1778,0.073677 0,0.052352 0.08822,0.083659 0.3048,0.1081617 0.16764,0.018966 0.3048,0.054391 0.3048,0.078723 0,0.024331 0.08001,0.044238 0.1778,0.044238 0.09779,0 0.1778,0.02286 0.1778,0.0508 0,0.02794 0.05715,0.0508 0.127,0.0508 0.07709,0 0.127,0.028955 0.127,0.073677 0,0.052352 0.08822,0.083659 0.3048,0.1081617 0.16764,0.018966 0.3048,0.054391 0.3048,0.078723 0,0.024331 0.08001,0.044238 0.1778,0.044238 0.124177,0 0.1778,0.022981 0.1778,0.0762 0,0.0508 0.0508,0.0762 0.152399,0.0762 0.08382,0 0.1524,0.020226 0.1524,0.044947 0,0.024721 0.12573,0.060656 0.2794,0.079855 0.15367,0.0192 0.2794,0.056124 0.2794,0.082053 0,0.02593 0.09144,0.047145 0.2032,0.047145 0.146756,0 0.2032,0.021167 0.2032,0.0762 0,0.0508 0.0508,0.0762 0.1524,0.0762 0.08382,0 0.1524,0.020197 0.1524,0.044882 0,0.024685 0.14859,0.060795 0.3302,0.080243 0.18161,0.019449 0.3302,0.056402 0.3302,0.082118 0,0.025716 0.06858,0.046757 0.1524,0.046757 0.09669,0 0.1524,0.025973 0.1524,0.071044 0,0.050692 0.101871,0.081275 0.3556,0.1067557 0.19558,0.019641 0.3556,0.056252 0.3556,0.081356 0,0.025104 0.08001,0.045644 0.1778,0.045644 0.124178,0 0.1778,0.022981 0.1778,0.0762 0,0.047413 0.04798,0.0762 0.127,0.0762 0.06985,0 0.127,0.020615 0.127,0.045812 0,0.025197 0.13716,0.061731 0.3048,0.081188 0.16764,0.019457 0.3048,0.055991 0.3048,0.081188 0,0.025197 0.08001,0.045812 0.1778,0.045812 0.124178,0 0.1778,0.022981 0.1778,0.0762 0,0.050316 0.05033,0.0762 0.148167,0.0762 0.08149,0 0.156278,0.024335 0.166192,0.054077 0.0099,0.029742 0.114689,0.067042 0.232834,0.082889 0.159158,0.021348 0.214807,0.0517 0.214807,0.1171613 0,0.07017 0.06199,0.095363 0.301275,0.1224349 0.165701,0.018747 0.308715,0.056406 0.317809,0.083687 0.0091,0.027281 0.13641,0.0638 0.282925,0.081152 0.175348,0.020767 0.266391,0.055174 0.266391,0.1006742 0,0.038018 0.04572,0.069124 0.1016,0.069124 0.05588,0 0.1016,0.02286 0.1016,0.0508 0,0.02794 0.08001,0.0508 0.1778,0.0508 0.09779,0 0.1778,0.02259 0.1778,0.0502 0,0.02761 0.09144,0.064822 0.2032,0.082693 0.122558,0.019598 0.2032,0.060157 0.2032,0.1022003 0,0.043586 0.05711,0.069707 0.1524,0.069707 0.08382,0 0.1524,0.02286 0.1524,0.0508 0,0.02794 0.03429,0.0508 0.0762,0.0508 0.04191,0 0.0762,0.02286 0.0762,0.0508 0,0.02794 0.05715,0.0508 0.127,0.0508 0.07857,0 0.127,0.02883 0.127,0.0756 0,0.04892 0.07172,0.08707 0.2032,0.108092 0.11176,0.01787 0.2032,0.05216 0.2032,0.0762 0,0.02404 0.09144,0.05833 0.2032,0.0762 0.149005,0.02383 0.2032,0.05667 0.2032,0.123136 0,0.06617 0.0549,0.09992 0.20336,0.124999 0.158278,0.02674 0.210176,0.06152 0.234107,0.156865 0.02177,0.08676 0.0662,0.122508 0.15224,0.122508 0.06682,0 0.121493,0.02259 0.121493,0.0502 0,0.02761 0.09175,0.06487 0.20389,0.0828 0.158409,0.02533 0.210629,0.05946 0.234107,0.153 0.02093,0.08339 0.06645,0.120397 0.148082,0.120397 0.06482,0 0.152154,0.03429 0.194064,0.0762 0.04191,0.04191 0.121075,0.0762 0.175921,0.0762 0.06384,0 0.111121,0.04542 0.131403,0.126226 0.02054,0.08186 0.08034,0.138439 0.170104,0.160969 0.13525,0.03395 0.266429,0.130155 0.266429,0.195405 0,0.05981 0.144134,0.1778 0.217199,0.1778 0.09044,0 0.290801,0.17036 0.290801,0.247259 0,0.03165 0.02286,0.05754 0.0508,0.05754 0.06588,0 0.254,0.188116 0.254,0.254 0,0.02794 0.02363,0.0508 0.05251,0.0508 0.06573,0 0.353888,0.29098 0.353888,0.357352 0,0.02698 0.0226,0.04905 0.05022,0.04905 0.08921,0 0.254581,0.17233 0.254581,0.26529 0,0.04967 0.03266,0.09031 0.07257,0.09031 0.111881,0 0.232228,0.146172 0.232228,0.282061 0,0.08783 0.03547,0.131307 0.125599,0.153927 0.08237,0.02067 0.155677,0.0997 0.212977,0.229568 0.04806,0.108924 0.105837,0.198044 0.1284,0.198044 0.02256,0 0.04102,0.05715 0.04102,0.127 0,0.07902 0.02879,0.127 0.0762,0.127 0.04191,0 0.0762,0.02449 0.0762,0.05443 0,0.02994 0.03429,0.08872 0.0762,0.130628 0.04191,0.04191 0.0762,0.120287 0.0762,0.174172 0,0.06188 0.03504,0.09797 0.09511,0.09797 0.07168,0 0.103113,0.05006 0.127601,0.2032 0.01787,0.11176 0.05294,0.2032 0.07793,0.2032 0.02499,0 0.06115,0.1143 0.08037,0.254 0.02308,0.167815 0.05917,0.254 0.106367,0.254 0.0455,0 0.07143,0.05532 0.07143,0.1524 0,0.08382 0.02286,0.1524 0.0508,0.1524 0.02794,0 0.0508,0.09144 0.0508,0.2032 0,0.11176 0.02286,0.2032 0.0508,0.2032 0.02794,0 0.0508,0.12573 0.0508,0.2794 0,0.204002 0.01896,0.2794 0.07027,0.2794 0.100315,0 0.155448,1.850424 0.107501,3.608027 -0.03039,1.114068 -0.05051,1.370373 -0.107576,1.370373 -0.0548,0 -0.07019,0.10585 -0.07019,0.4826 0,0.287866 -0.0205,0.4826 -0.0508,0.4826 -0.02963,0 -0.0508,0.169333 -0.0508,0.4064 0,0.237066 -0.02117,0.4064 -0.0508,0.4064 -0.02903,0 -0.0508,0.1524 -0.0508,0.3556 0,0.265825 -0.01743,0.3556 -0.06904,0.3556 -0.05287,0 -0.0776,0.157546 -0.105599,0.672573 -0.02011,0.369915 -0.05474,0.68424 -0.07695,0.6985 -0.02222,0.01426 -0.05701,0.317392 -0.07732,0.673627 -0.03277,0.574753 -0.04717,0.6477 -0.127858,0.6477 -0.07965,0 -0.09546,0.06931 -0.127437,0.5588 -0.02008,0.30734 -0.05687,0.5588 -0.08175,0.5588 -0.02489,0 -0.04525,0.14859 -0.04525,0.3302 0,0.259644 -0.01628,0.3302 -0.0762,0.3302 -0.0585,0 -0.0762,0.06491 -0.0762,0.2794 0,0.15367 -0.02093,0.2794 -0.04652,0.2794 -0.02558,0 -0.06282,0.25146 -0.08274,0.5588 -0.01992,0.30734 -0.05614,0.5588 -0.08048,0.5588 -0.02435,0 -0.04426,0.12573 -0.04426,0.2794 0,0.214488 -0.0177,0.2794 -0.0762,0.2794 -0.0585,0 -0.0762,0.06491 -0.0762,0.2794 0,0.15367 -0.02085,0.2794 -0.04634,0.2794 -0.02549,0 -0.06272,0.27432 -0.08273,0.6096 -0.02001,0.33528 -0.05631,0.609599 -0.08066,0.609599 -0.02435,0 -0.04427,0.10287 -0.04427,0.2286 0,0.161172 -0.0208,0.2286 -0.07053,0.2286 -0.05468,0 -0.07879,0.14846 -0.107266,0.6604 -0.0202,0.36322 -0.05704,0.6604 -0.08187,0.6604 -0.02482,0 -0.04513,0.16002 -0.04513,0.3556 0,0.282223 -0.01572,0.3556 -0.0762,0.3556 -0.0585,0 -0.0762,0.06491 -0.0762,0.2794 0,0.15367 -0.02026,0.2794 -0.04501,0.2794 -0.02476,0 -0.06165,0.36576 -0.08199,0.8128 -0.02034,0.44704 -0.05723,0.8128 -0.08199,0.8128 -0.02476,0 -0.04501,0.19431 -0.04501,0.4318 0,0.349956 -0.01444,0.4318 -0.0762,0.4318 -0.06234,0 -0.0762,0.08702 -0.0762,0.478367 0,0.315818 -0.01988,0.484995 -0.05852,0.497873 -0.08711,0.02904 -0.09067,4.773696 -0.0036,4.802718 0.03877,0.01292 0.06213,0.124145 0.06213,0.295875 0,0.210726 0.01785,0.275167 0.0762,0.275167 0.0585,0 0.0762,0.06491 0.0762,0.2794 0,0.15367 0.02017,0.2794 0.04483,0.2794 0.02466,0 0.0609,0.17145 0.08053,0.381 0.01964,0.20955 0.05661,0.381 0.08217,0.381 0.02556,0 0.04647,0.06858 0.04647,0.1524 0,0.1016 0.0254,0.1524 0.0762,0.1524 0.04191,0 0.0762,0.03238 0.0762,0.07197 0,0.03958 0.02072,0.07959 0.04604,0.0889 0.02532,0.0093 0.06171,0.144067 0.08086,0.299453 l 0.03482,0.282521 -0.398356,0.35542 c -0.958382,0.855085 -2.066821,1.708573 -3.080195,2.37172 -0.690374,0.451777 -0.656504,0.433095 -0.734462,0.40513 z m 8.7757,-8.790689 c 0,-0.104618 -0.02508,-0.164422 -0.06896,-0.164422 -0.06798,0 -0.134237,-0.392317 -0.134237,-0.794852 0,-0.09369 -0.02286,-0.170348 -0.0508,-0.170348 -0.03243,0 -0.0508,-0.4318 -0.0508,-1.1938 0,-0.762 0.01837,-1.1938 0.0508,-1.1938 0.02795,0 0.05092,-0.131408 0.05106,-0.2921 6.04e-4,-0.671498 0.06464,-1.2827 0.134399,-1.2827 0.0499,0 0.06854,-0.08288 0.06854,-0.3048 0,-0.169333 0.02258,-0.3048 0.0508,-0.3048 0.02859,0 0.0508,-0.142522 0.0508,-0.325966 0,-0.179282 0.02187,-0.333587 0.0486,-0.3429 0.02673,-0.0093 0.06439,-0.262679 0.08368,-0.563034 0.0262,-0.407838 0.05248,-0.5461 0.103803,-0.5461 0.04859,0 0.06872,-0.07438 0.06872,-0.254 0,-0.1397 0.02286,-0.254 0.0508,-0.254 0.02822,0 0.0508,-0.135466 0.0508,-0.3048 0,-0.16764 0.01992,-0.3048 0.04427,-0.3048 0.02435,0 0.06065,-0.274319 0.08066,-0.609599 0.02829,-0.473995 0.05234,-0.6096 0.108127,-0.6096 0.05616,0 0.07174,-0.09377 0.07174,-0.4318 0,-0.23749 0.02033,-0.4318 0.04519,-0.4318 0.02485,0 0.06167,-0.27432 0.08181,-0.6096 0.03246,-0.540281 0.04706,-0.6096 0.128332,-0.6096 0.08065,0 0.09607,-0.06734 0.127922,-0.5588 0.01992,-0.30734 0.05394,-0.5588 0.07559,-0.5588 0.02166,0 0.05574,-0.24003 0.07573,-0.5334 0.03171,-0.465226 0.04798,-0.5334 0.127328,-0.5334 0.07747,0 0.09631,-0.06407 0.12694,-0.4318 0.01978,-0.23749 0.05613,-0.4318 0.08076,-0.4318 0.02464,0 0.04479,-0.13716 0.04479,-0.3048 0,-0.228897 0.0179,-0.3048 0.07187,-0.3048 0.05239,0 0.08154,-0.103238 0.107568,-0.381 0.01964,-0.20955 0.05588,-0.381 0.08053,-0.381 0.02466,0 0.04483,-0.1143 0.04483,-0.254 0,-0.1397 0.02286,-0.254 0.0508,-0.254 0.02794,0 0.0508,-0.09144 0.0508,-0.2032 0,-0.138979 0.02217,-0.2032 0.07016,-0.2032 0.05222,0 0.07941,-0.123423 0.106341,-0.4826 0.0199,-0.26543 0.05691,-0.4826 0.08224,-0.4826 0.02533,0 0.04606,-0.10287 0.04606,-0.2286 0,-0.12573 0.02286,-0.2286 0.0508,-0.2286 0.02794,0 0.0508,-0.09144 0.0508,-0.2032 0,-0.138942 0.02218,-0.2032 0.07013,-0.2032 0.05288,0 0.07907,-0.131202 0.106488,-0.5334 0.02,-0.29337 0.05702,-0.5334 0.08227,-0.5334 0.02525,0 0.04591,-0.12573 0.04591,-0.2794 0,-0.214489 0.0177,-0.2794 0.0762,-0.2794 0.0585,0 0.0762,-0.06491 0.0762,-0.2794 0,-0.15367 0.02286,-0.2794 0.0508,-0.2794 0.02794,0 0.05105,-0.120015 0.05136,-0.2667 3.07e-4,-0.146685 0.01566,-0.35814 0.03413,-0.4699 0.03181,-0.192567 0.04243,-0.16997 0.202994,0.4318 1.320749,4.950131 1.210248,10.302681 -0.314051,15.212394 -0.659005,2.122632 -1.869727,4.774411 -2.853529,6.249927 L 50.681466,42.17111 Z M 0.83423768,33.836853 C 0.81776186,33.810194 0.72392909,33.377372 0.62572041,32.875025 0.2778629,31.0957 0.09262952,29.39836 0.19479715,28.926367 c 0.0347754,-0.160655 0.0813725,-0.2921 0.10354914,-0.2921 0.0221766,0 0.0406333,-0.05144 0.0410148,-0.1143 0.001282,-0.211274 0.0603876,-0.3429 0.15397583,-0.3429 0.0734411,0 0.0990678,-0.05641 0.12692847,-0.2794 0.0191998,-0.15367 0.0551347,-0.2794 0.0798554,-0.2794 0.0247207,0 0.0449466,-0.03429 0.0449466,-0.0762 0,-0.04191 0.0331548,-0.0762 0.0736774,-0.0762 0.052352,0 0.0836587,-0.08822 0.10816164,-0.3048 0.0189663,-0.16764 0.0543915,-0.3048 0.0787226,-0.3048 0.024331,0 0.044238,-0.04572 0.044238,-0.1016 0,-0.05588 0.02286,-0.1016 0.0508,-0.1016 0.02794,0 0.0508,-0.08001 0.0508,-0.1778 0,-0.121473 0.023341,-0.1778 0.073678,-0.1778 0.052352,0 0.083659,-0.08822 0.1081616,-0.3048 0.018966,-0.16764 0.054392,-0.3048 0.078723,-0.3048 0.024331,0 0.044238,-0.08001 0.044238,-0.1778 0,-0.124178 0.022981,-0.1778 0.0762,-0.1778 0.0508,0 0.0762,-0.0508 0.0762,-0.1524 0,-0.08382 0.020481,-0.1524 0.045513,-0.1524 0.025032,0 0.061701,-0.18288 0.081487,-0.4064 0.019786,-0.22352 0.056455,-0.4064 0.081487,-0.4064 0.025032,0 0.045513,-0.10287 0.045513,-0.2286 0,-0.169334 0.019756,-0.2286 0.0762,-0.2286 0.059817,0 0.0762,-0.07008 0.0762,-0.325967 0,-0.215619 0.021496,-0.333131 0.0635,-0.347131 0.092575,-0.03085 0.092575,-3.80453 0,-3.835396 -0.040379,-0.01346 -0.0635,-0.121365 -0.0635,-0.296339 0,-0.210726 -0.017845,-0.275167 -0.0762,-0.275167 -0.057401,0 -0.0762,-0.06162 -0.0762,-0.249767 0,-0.148122 -0.024633,-0.257977 -0.06053,-0.269943 -0.072543,-0.02418 0.038503,-0.340975 0.4944869,-1.41069 0.5547482,-1.30141 1.2576604,-2.64254 1.996895,-3.81 0.2632345,-0.415722 0.3413297,-0.508183 0.3539815,-0.4191 0.00893,0.06286 0.037503,0.1143 0.0635,0.1143 0.025997,0 0.047267,0.03429 0.047267,0.0762 0,0.04191 0.02286,0.0762 0.0508,0.0762 0.02794,0 0.0508,0.05715 0.0508,0.127 0,0.07662 0.028994,0.127 0.073087,0.127 0.047677,0 0.085006,0.07948 0.107368,0.2286 0.018854,0.12573 0.054545,0.2286 0.079313,0.2286 0.024768,0 0.045032,0.05715 0.045032,0.127 0,0.07902 0.028787,0.127 0.0762,0.127 0.052865,0 0.0762,0.05315 0.0762,0.173567 0,0.09546 0.023277,0.181325 0.051726,0.190808 0.028449,0.0095 0.065923,0.137118 0.083276,0.283634 0.017353,0.146515 0.051226,0.266391 0.075274,0.266391 0.024048,0 0.043724,0.09144 0.043724,0.2032 0,0.146756 0.021167,0.2032 0.0762,0.2032 0.056231,0 0.0762,0.0588 0.0762,0.224367 0,0.123401 0.021702,0.231986 0.048227,0.2413 0.026525,0.0093 0.06417,0.285538 0.083655,0.613833 0.026738,0.450488 0.05229,0.5969 0.1041726,0.5969 0.056213,0 0.068745,0.268562 0.068745,1.4732 0,1.208055 -0.012431,1.4732 -0.06907,1.4732 -0.053294,0 -0.077375,0.165341 -0.1054319,0.7239 -0.019999,0.398145 -0.057498,0.73152 -0.08333,0.740833 -0.025832,0.0093 -0.046968,0.117899 -0.046968,0.2413 0,0.165571 -0.019969,0.224367 -0.0762,0.224367 -0.055033,0 -0.0762,0.05644 -0.0762,0.2032 0,0.11176 -0.021144,0.2032 -0.046986,0.2032 -0.025842,0 -0.063081,0.20574 -0.082752,0.4572 -0.019671,0.25146 -0.055678,0.4572 -0.080014,0.4572 -0.024336,0 -0.044248,0.09144 -0.044248,0.2032 0,0.146755 -0.021167,0.2032 -0.0762,0.2032 -0.050316,0 -0.0762,0.05033 -0.0762,0.148166 0,0.08149 -0.023197,0.155899 -0.051549,0.16535 -0.028352,0.0095 -0.065948,0.171376 -0.083546,0.359833 -0.022293,0.238726 -0.05288,0.342651 -0.1008513,0.342651 -0.039578,0 -0.068854,0.054 -0.068854,0.127 0,0.06985 -0.02286,0.127 -0.0508,0.127 -0.02794,0 -0.0508,0.05715 -0.0508,0.127 0,0.06985 -0.020615,0.127 -0.045812,0.127 -0.025197,0 -0.061731,0.13716 -0.081188,0.3048 -0.024461,0.210754 -0.057348,0.3048 -0.1065879,0.3048 -0.042093,0 -0.071212,0.05193 -0.071212,0.127 0,0.06985 -0.02286,0.127 -0.0508,0.127 -0.02794,0 -0.0508,0.05715 -0.0508,0.127 0,0.06985 -0.02286,0.127 -0.0508,0.127 -0.02794,0 -0.051112,0.05143 -0.051494,0.1143 -0.00118,0.193943 -0.058619,0.3429 -0.1322312,0.3429 -0.046448,0 -0.070275,0.06028 -0.070275,0.1778 0,0.09779 -0.021215,0.1778 -0.047145,0.1778 -0.02593,0 -0.062854,0.12573 -0.082053,0.2794 -0.028336,0.22679 -0.052824,0.2794 -0.1300551,0.2794 -0.071722,0 -0.1031459,0.05003 -0.1276393,0.2032 -0.017871,0.11176 -0.052431,0.2032 -0.0768,0.2032 -0.024369,0 -0.044619,0.05144 -0.045001,0.1143 -0.00128,0.210147 -0.060456,0.3429 -0.1528642,0.3429 -0.070565,0 -0.098726,0.05684 -0.1258421,0.254 -0.019214,0.1397 -0.055649,0.254 -0.080967,0.254 -0.025318,0 -0.046033,0.05715 -0.046033,0.127 0,0.07551 -0.029084,0.127 -0.071735,0.127 -0.044102,0 -0.084959,0.07827 -0.1060652,0.2032 -0.018882,0.11176 -0.055181,0.2032 -0.080665,0.2032 -0.025484,0 -0.046335,0.06858 -0.046335,0.1524 0,0.08382 -0.02286,0.1524 -0.0508,0.1524 -0.02794,0 -0.0508,0.05715 -0.0508,0.127 0,0.07857 -0.028827,0.127 -0.0756,0.127 -0.048917,0 -0.087068,0.07172 -0.1080926,0.2032 -0.017871,0.11176 -0.052431,0.2032 -0.0768,0.2032 -0.024369,0 -0.044307,0.03429 -0.044307,0.0762 0,0.04191 -0.02286,0.0762 -0.0508,0.0762 -0.02794,0 -0.0508,0.04572 -0.0508,0.1016 0,0.05588 -0.031345,0.1016 -0.069655,0.1016 -0.045227,0 -0.081472,0.08908 -0.1033497,0.254 -0.018532,0.1397 -0.055767,0.254 -0.082745,0.254 -0.026978,0 -0.04905,0.05715 -0.04905,0.127 0,0.07902 -0.028787,0.127 -0.0762,0.127 -0.04191,0 -0.0762,0.03429 -0.0762,0.0762 0,0.04191 -0.019938,0.0762 -0.044307,0.0762 -0.024369,0 -0.058929,0.09144 -0.0768,0.2032 -0.017871,0.11176 -0.055083,0.2032 -0.082693,0.2032 -0.02761,0 -0.0502,0.06858 -0.0502,0.1524 0,0.1016 -0.0254,0.1524 -0.0762,0.1524 -0.047413,0 -0.0762,0.04798 -0.0762,0.127 0,0.06985 -0.02259,0.127 -0.0502,0.127 -0.02761,0 -0.064822,0.09144 -0.082693,0.2032 -0.019598,0.122557 -0.060157,0.2032 -0.1022003,0.2032 -0.038339,0 -0.069707,0.03429 -0.069707,0.0762 0,0.04191 -0.02286,0.0762 -0.0508,0.0762 -0.02794,0 -0.0508,0.06858 -0.0508,0.152399 0,0.08382 -0.02286,0.1524 -0.0508,0.1524 -0.02794,0 -0.0524067,0.05144 -0.0543705,0.1143 -0.004912,0.157242 -0.0739968,0.321284 -0.11045926,0.262287 z M 43.353566,5.3314816 c -0.07684,-0.01164 -0.1397,-0.042504 -0.1397,-0.068588 0,-0.026084 -0.05715,-0.047426 -0.127,-0.047426 -0.07389,0 -0.127,-0.02921 -0.127,-0.06985 0,-0.069652 -0.209293,-0.13335 -0.43815,-0.13335 -0.06636,0 -0.12065,-0.02286 -0.12065,-0.0508 0,-0.02794 -0.06858,-0.0508 -0.1524,-0.0508 -0.08382,0 -0.1524,-0.02286 -0.1524,-0.0508 0,-0.02794 -0.03429,-0.0508 -0.0762,-0.0508 -0.04191,0 -0.0762,-0.031627 -0.0762,-0.070282 0,-0.049007 -0.09995,-0.080986 -0.3302,-0.1056434 -0.18161,-0.019449 -0.3302,-0.056402 -0.3302,-0.082118 0,-0.025716 -0.06858,-0.046757 -0.1524,-0.046757 -0.1016,0 -0.1524,-0.0254 -0.1524,-0.0762 0,-0.052865 -0.05315,-0.0762 -0.173566,-0.0762 -0.09546,0 -0.181554,-0.02396 -0.191315,-0.053244 -0.0098,-0.029284 -0.148826,-0.066772 -0.309033,-0.083307 -0.160207,-0.016535 -0.291286,-0.049725 -0.291286,-0.073756 0,-0.024031 -0.08001,-0.043693 -0.1778,-0.043693 -0.124177,0 -0.1778,-0.022981 -0.1778,-0.0762 0,-0.053219 -0.05362,-0.0762 -0.1778,-0.0762 -0.09779,0 -0.1778,-0.020909 -0.1778,-0.046466 0,-0.025556 -0.17145,-0.062532 -0.381,-0.082168 -0.273193,-0.0256 -0.381,-0.055575 -0.381,-0.1059342 0,-0.04807 -0.06412,-0.070232 -0.2032,-0.070232 -0.11176,0 -0.2032,-0.02286 -0.2032,-0.0508 0,-0.02794 -0.10287,-0.0508 -0.2286,-0.0508 -0.12573,0 -0.2286,-0.019912 -0.2286,-0.044248 0,-0.024336 -0.20574,-0.060342 -0.4572,-0.080014 -0.345094,-0.026996 -0.4572,-0.053515 -0.4572,-0.1081524 0,-0.050584 -0.0612,-0.072386 -0.2032,-0.072386 -0.11176,0 -0.2032,-0.019915 -0.2032,-0.044256 0,-0.024341 -0.2286,-0.060463 -0.508,-0.080271 -0.2794,-0.019808 -0.508,-0.057043 -0.508,-0.082744 0,-0.025701 -0.09144,-0.046729 -0.2032,-0.046729 -0.146755,0 -0.2032,-0.021167 -0.2032,-0.0762 0,-0.055033 -0.05644,-0.0762 -0.2032,-0.0762 -0.11176,0 -0.2032,-0.020481 -0.2032,-0.045513 0,-0.025032 -0.18288,-0.061701 -0.4064,-0.081487 -0.342096,-0.030282 -0.4064,-0.050263 -0.4064,-0.1262789 0,-0.076635 -0.06536,-0.095749 -0.4318,-0.1262729 -0.237489,-0.019783 -0.431799,-0.054457 -0.431799,-0.077053 0,-0.022596 -0.16002,-0.057154 -0.3556,-0.076796 -0.25373,-0.025481 -0.3556,-0.056064 -0.3556,-0.1067558 0,-0.041914 -0.05207,-0.071044 -0.127,-0.071044 -0.06985,0 -0.127,-0.02286 -0.127,-0.0508 0,-0.02794 -0.08001,-0.0508 -0.1778,-0.0508 -0.09779,0 -0.1778,-0.02286 -0.1778,-0.0508 0,-0.02794 -0.06858,-0.0508 -0.1524,-0.0508 -0.09781,0 -0.1524,-0.025849 -0.1524,-0.072157 0,-0.051315 -0.09538,-0.082371 -0.3302,-0.1075181 -0.18161,-0.019449 -0.3302,-0.055558 -0.3302,-0.080243 0,-0.024685 -0.03429,-0.044882 -0.0762,-0.044882 -0.04191,0 -0.0762,-0.02286 -0.0762,-0.0508 0,-0.02794 -0.06858,-0.0508 -0.1524,-0.0508 -0.09524,0 -0.1524,-0.026127 -0.1524,-0.069655 0,-0.045638 -0.09163,-0.081811 -0.265747,-0.1049079 -0.14616,-0.019389 -0.280493,-0.059113 -0.298517,-0.088276 -0.01802,-0.029163 -0.138468,-0.064938 -0.267653,-0.079499 -0.181537,-0.020462 -0.234883,-0.047035 -0.234883,-0.1170028 0,-0.0660278 -0.05499,-0.0998193 -0.2032,-0.12485857 -0.11176,-0.0188817 -0.2032,-0.0551811 -0.2032,-0.0806652 0,-0.0254841 -0.04572,-0.0463348 -0.1016,-0.0463348 -0.05645,0 -0.1016,-0.0338667 -0.1016,-0.0762 0,-0.0423333 -0.04516,-0.0762 -0.1016,-0.0762 -0.05588,0 -0.1016,-0.020226 -0.1016,-0.0449466 0,-0.0247207 -0.12573,-0.0606556 -0.2794,-0.0798554 -0.15367,-0.0191998 -0.2794,-0.0561238 -0.2794,-0.0820533 0,-0.0259295 -0.03429,-0.0471446 -0.0762,-0.0471446 -0.04191,0 -0.0762,-0.0314325 -0.0762,-0.06985 0,-0.0384175 -0.06858,-0.083566 -0.1524,-0.10032999 -0.08382,-0.016764 -0.1524,-0.0539115 -0.1524,-0.08255 0,-0.13435452 2.60661,0.0101306 4.191,0.23230819 3.961428,0.5555078 7.893059,2.05377765 11.277599,4.29767885 1.056046,0.7001429 1.083106,0.7268678 0.6731,0.6647571 z"
       id="path2" /></g></svg>
